<?xml version="1.0" encoding="UTF-8" standalone="no"?>
<!-- Created with Inkscape (http://www.inkscape.org/) -->

<svg
   version="1.1"
   id="svg1"
   width="999.99988"
   height="380.95334"
   viewBox="0 0 999.99988 380.95333"
   sodipodi:docname="grid.svg"
   inkscape:version="1.4.2 (ebf0e940d0, 2025-05-08)"
   xmlns:inkscape="http://www.inkscape.org/namespaces/inkscape"
   xmlns:sodipodi="http://sodipodi.sourceforge.net/DTD/sodipodi-0.dtd"
   xmlns="http://www.w3.org/2000/svg"
   xmlns:svg="http://www.w3.org/2000/svg">
  <defs
     id="defs1">
    <clipPath
       clipPathUnits="userSpaceOnUse"
       id="clipPath4">
      <path
         d="M 34369.3,6.89844 H 0 V 13100 h 34369.3 z"
         transform="translate(0,2.5000001e-4)"
         id="path4" />
    </clipPath>
    <clipPath
       clipPathUnits="userSpaceOnUse"
       id="clipPath6">
      <path
         d="M 34369.3,6.89844 H 0 V 13100 h 34369.3 z"
         transform="translate(0,2.5000001e-4)"
         id="path6" />
    </clipPath>
    <clipPath
       clipPathUnits="userSpaceOnUse"
       id="clipPath8">
      <path
         d="M 34369.3,6.89844 H 0 V 13100 h 34369.3 z"
         transform="translate(0,2.5000001e-4)"
         id="path8" />
    </clipPath>
    <clipPath
       clipPathUnits="userSpaceOnUse"
       id="clipPath10">
      <path
         d="M 34369.3,6.89844 H 0 V 13100 h 34369.3 z"
         transform="translate(0,2.5000001e-4)"
         id="path10" />
    </clipPath>
    <clipPath
       clipPathUnits="userSpaceOnUse"
       id="clipPath12">
      <path
         d="M 34369.3,6.89844 H 0 V 13100 h 34369.3 z"
         transform="translate(0,2.5000001e-4)"
         id="path12" />
    </clipPath>
    <clipPath
       clipPathUnits="userSpaceOnUse"
       id="clipPath14">
      <path
         d="M 34369.3,6.89844 H 0 V 13100 h 34369.3 z"
         transform="translate(0,2.5000001e-4)"
         id="path14" />
    </clipPath>
    <clipPath
       clipPathUnits="userSpaceOnUse"
       id="clipPath16">
      <path
         d="M 34369.3,6.89844 H 0 V 13100 h 34369.3 z"
         transform="translate(0,2.5000001e-4)"
         id="path16" />
    </clipPath>
    <clipPath
       clipPathUnits="userSpaceOnUse"
       id="clipPath18">
      <path
         d="M 34369.3,6.89844 H 0 V 13100 h 34369.3 z"
         transform="translate(0,2.5000001e-4)"
         id="path18" />
    </clipPath>
    <clipPath
       clipPathUnits="userSpaceOnUse"
       id="clipPath20">
      <path
         d="M 34369.3,6.89844 H 0 V 13100 h 34369.3 z"
         transform="translate(0,2.5000001e-4)"
         id="path20" />
    </clipPath>
    <clipPath
       clipPathUnits="userSpaceOnUse"
       id="clipPath22">
      <path
         d="M 34369.3,6.89844 H 0 V 13100 h 34369.3 z"
         transform="translate(0,2.5000001e-4)"
         id="path22" />
    </clipPath>
    <clipPath
       clipPathUnits="userSpaceOnUse"
       id="clipPath24">
      <path
         d="M 34369.3,6.89844 H 0 V 13100 h 34369.3 z"
         transform="translate(0,2.5000001e-4)"
         id="path24" />
    </clipPath>
    <clipPath
       clipPathUnits="userSpaceOnUse"
       id="clipPath26">
      <path
         d="M 34369.3,6.89844 H 0 V 13100 h 34369.3 z"
         transform="translate(0,2.5000001e-4)"
         id="path26" />
    </clipPath>
    <clipPath
       clipPathUnits="userSpaceOnUse"
       id="clipPath28">
      <path
         d="M 34369.3,6.89844 H 0 V 13100 h 34369.3 z"
         transform="translate(0,2.5000001e-4)"
         id="path28" />
    </clipPath>
    <clipPath
       clipPathUnits="userSpaceOnUse"
       id="clipPath30">
      <path
         d="M 34369.3,6.89844 H 0 V 13100 h 34369.3 z"
         transform="translate(0,2.5000001e-4)"
         id="path30" />
    </clipPath>
    <clipPath
       clipPathUnits="userSpaceOnUse"
       id="clipPath32">
      <path
         d="M 34369.3,6.89844 H 0 V 13100 h 34369.3 z"
         transform="translate(0,2.5000001e-4)"
         id="path32" />
    </clipPath>
    <clipPath
       clipPathUnits="userSpaceOnUse"
       id="clipPath34">
      <path
         d="M 34369.3,6.89844 H 0 V 13100 h 34369.3 z"
         transform="translate(0,2.5000001e-4)"
         id="path34" />
    </clipPath>
    <clipPath
       clipPathUnits="userSpaceOnUse"
       id="clipPath36">
      <path
         d="M 34369.3,6.89844 H 0 V 13100 h 34369.3 z"
         transform="translate(0,2.5000001e-4)"
         id="path36" />
    </clipPath>
    <clipPath
       clipPathUnits="userSpaceOnUse"
       id="clipPath38">
      <path
         d="M 34369.3,6.89844 H 0 V 13100 h 34369.3 z"
         transform="translate(0,2.5000001e-4)"
         id="path38" />
    </clipPath>
    <clipPath
       clipPathUnits="userSpaceOnUse"
       id="clipPath40">
      <path
         d="M 34369.3,6.89844 H 0 V 13100 h 34369.3 z"
         transform="translate(0,2.5000001e-4)"
         id="path40" />
    </clipPath>
    <clipPath
       clipPathUnits="userSpaceOnUse"
       id="clipPath42">
      <path
         d="M 34369.3,6.89844 H 0 V 13100 h 34369.3 z"
         transform="translate(0,2.5000001e-4)"
         id="path42" />
    </clipPath>
    <clipPath
       clipPathUnits="userSpaceOnUse"
       id="clipPath44">
      <path
         d="M 34369.3,6.89844 H 0 V 13100 h 34369.3 z"
         transform="translate(0,2.5000001e-4)"
         id="path44" />
    </clipPath>
    <clipPath
       clipPathUnits="userSpaceOnUse"
       id="clipPath46">
      <path
         d="M 34369.3,6.89844 H 0 V 13100 h 34369.3 z"
         transform="translate(0,2.5000001e-4)"
         id="path46" />
    </clipPath>
    <clipPath
       clipPathUnits="userSpaceOnUse"
       id="clipPath48">
      <path
         d="M 34369.3,6.89844 H 0 V 13100 h 34369.3 z"
         transform="translate(0,2.5000001e-4)"
         id="path48" />
    </clipPath>
    <clipPath
       clipPathUnits="userSpaceOnUse"
       id="clipPath50">
      <path
         d="M 34369.3,6.89844 H 0 V 13100 h 34369.3 z"
         transform="translate(0,2.5000001e-4)"
         id="path50" />
    </clipPath>
    <clipPath
       clipPathUnits="userSpaceOnUse"
       id="clipPath52">
      <path
         d="M 34369.3,6.89844 H 0 V 13100 h 34369.3 z"
         transform="translate(0,2.5000001e-4)"
         id="path52" />
    </clipPath>
    <clipPath
       clipPathUnits="userSpaceOnUse"
       id="clipPath54">
      <path
         d="M 34369.3,6.89844 H 0 V 13100 h 34369.3 z"
         transform="translate(0,2.5000001e-4)"
         id="path54" />
    </clipPath>
    <clipPath
       clipPathUnits="userSpaceOnUse"
       id="clipPath56">
      <path
         d="M 34369.3,6.89844 H 0 V 13100 h 34369.3 z"
         transform="translate(0,2.5000001e-4)"
         id="path56" />
    </clipPath>
    <clipPath
       clipPathUnits="userSpaceOnUse"
       id="clipPath58">
      <path
         d="M 34369.3,6.89844 H 0 V 13100 h 34369.3 z"
         transform="translate(0,2.5000001e-4)"
         id="path58" />
    </clipPath>
    <clipPath
       clipPathUnits="userSpaceOnUse"
       id="clipPath60">
      <path
         d="M 34369.3,6.89844 H 0 V 13100 h 34369.3 z"
         transform="translate(0,2.5000001e-4)"
         id="path60" />
    </clipPath>
    <clipPath
       clipPathUnits="userSpaceOnUse"
       id="clipPath62">
      <path
         d="M 34369.3,6.89844 H 0 V 13100 h 34369.3 z"
         transform="translate(0,2.5000001e-4)"
         id="path62" />
    </clipPath>
    <clipPath
       clipPathUnits="userSpaceOnUse"
       id="clipPath64">
      <path
         d="M 34369.3,6.89844 H 0 V 13100 h 34369.3 z"
         transform="translate(0,2.5000001e-4)"
         id="path64" />
    </clipPath>
    <clipPath
       clipPathUnits="userSpaceOnUse"
       id="clipPath66">
      <path
         d="M 34369.3,6.89844 H 0 V 13100 h 34369.3 z"
         transform="translate(0,2.5000001e-4)"
         id="path66" />
    </clipPath>
    <clipPath
       clipPathUnits="userSpaceOnUse"
       id="clipPath68">
      <path
         d="M 34369.3,6.89844 H 0 V 13100 h 34369.3 z"
         transform="translate(0,2.5000001e-4)"
         id="path68" />
    </clipPath>
    <clipPath
       clipPathUnits="userSpaceOnUse"
       id="clipPath70">
      <path
         d="M 34369.3,6.89844 H 0 V 13100 h 34369.3 z"
         transform="translate(0,2.5000001e-4)"
         id="path70" />
    </clipPath>
    <clipPath
       clipPathUnits="userSpaceOnUse"
       id="clipPath72">
      <path
         d="M 34369.3,6.89844 H 0 V 13100 h 34369.3 z"
         transform="translate(0,2.5000001e-4)"
         id="path72" />
    </clipPath>
    <clipPath
       clipPathUnits="userSpaceOnUse"
       id="clipPath74">
      <path
         d="M 34369.3,6.89844 H 0 V 13100 h 34369.3 z"
         transform="translate(0,2.5000001e-4)"
         id="path74" />
    </clipPath>
    <clipPath
       clipPathUnits="userSpaceOnUse"
       id="clipPath76">
      <path
         d="M 34369.3,6.89844 H 0 V 13100 h 34369.3 z"
         transform="translate(0,2.5000001e-4)"
         id="path76" />
    </clipPath>
    <clipPath
       clipPathUnits="userSpaceOnUse"
       id="clipPath78">
      <path
         d="M 34369.3,6.89844 H 0 V 13100 h 34369.3 z"
         transform="translate(0,2.5000001e-4)"
         id="path78" />
    </clipPath>
  </defs>
  <sodipodi:namedview
     id="namedview1"
     pagecolor="#ffffff"
     bordercolor="#000000"
     borderopacity="0.25"
     inkscape:showpageshadow="2"
     inkscape:pageopacity="0.0"
     inkscape:pagecheckerboard="0"
     inkscape:deskcolor="#d1d1d1"
     inkscape:zoom="0.89423919"
     inkscape:cx="401.45858"
     inkscape:cy="111.26777"
     inkscape:window-width="2194"
     inkscape:window-height="1162"
     inkscape:window-x="0"
     inkscape:window-y="0"
     inkscape:window-maximized="1"
     inkscape:current-layer="svg1">
    <inkscape:page
       x="0"
       y="0"
       inkscape:label="1"
       id="page1"
       width="999.99988"
       height="380.95334"
       margin="0"
       bleed="0" />
  </sodipodi:namedview>
  <path
     id="path77"
     clip-path="url(#clipPath78)"
     style="fill:#0d0f2c;fill-opacity:1;fill-rule:nonzero;stroke:none;stroke-opacity:1"
     transform="matrix(0.02909573,0,0,-0.02909573,0,381.15407)"
     d="m 4584.37,-1782.3 c 143.25,77.7 287.63,154.2 433.75,228.6 472.96,240.7 974.66,471 1491.13,684.598 470.52,194.504 967.66,381.102 1477.63,554.602 460.05,156.5 943.13,306.60156 1435.82,446.102 443.54,125.597 903.7,245.097 1367.7,355.199 419.9,99.601 849.6,193.199 1277.1,278 389.5,77.301 782.8,148.5 1168.9,211.601 353.9,57.698 706.7,109.498 1048.5,153.798 313.1,40.5 623.1,75.6 921.5,104.3 269.7,25.9 536.2,47.2 792.2,63.3 226.3,14.2 449.9,24.7 664.6,31.2 183.9,5.6 366.1,8.4 541.4,8.4 175.4,0 357.6,-2.8 541.5,-8.4 214.7,-6.5 438.3,-17 664.6,-31.2 256,-16.1 522.5,-37.4 792.2,-63.3 298.4,-28.7 608.4,-63.8 921.4,-104.3 341.9,-44.3 694.7,-96.1 1048.6,-153.798 386.1,-63.101 779.3,-134.3 1168.9,-211.601 427.5,-84.801 857.1,-178.399 1277.1,-278 463.9,-110.102 924.1,-229.602 1367.7,-355.199 492.7,-139.50044 975.7,-289.602 1435.8,-446.102 510,-173.5 1007.1,-360.098 1477.6,-554.602 516.6,-213.598 1018.3,-443.898 1491.2,-684.598 146.1,-74.4 290.5,-150.9 433.7,-228.6 h 62.6 c -160.1,87.5 -321.5,173.7 -485.3,257.1 -473.5,241 -975.8,471.6 -1493,685.501 -470.9,194.699 -968.6,381.5 -1479.1,555.101 -460.4,156.598 -943.9,306.7972 -1437,446.496 -443.9,125.704 -904.4,245.204 -1368.7,355.403 -420.3,99.699 -850.2,193.301 -1278,278.301 -389.8,77.3 -783.3,148.5 -1169.7,211.598 -354.1,57.8 -707.2,109.6 -1049.3,154 -313.3,40.5 -623.6,75.7 -922.2,104.4 -269.9,25.9 -536.7,47.2 -793,63.3 -226.6,14.2 -450.5,24.8 -665.4,31.3 -184.1,5.6 -366.5,8.4 -542.2,8.4 -175.6,0 -358,-2.8 -542.1,-8.4 -215,-6.5 -438.8,-17.1 -665.4,-31.3 -256.3,-16.1 -523.1,-37.4 -793,-63.3 -298.6,-28.7 -608.9,-63.9 -922.2,-104.4 -342.2,-44.4 -695.2,-96.2 -1049.3,-154 -386.4,-63.098 -779.9,-134.298 -1169.7,-211.598 -427.8,-85 -857.8,-178.602 -1278,-278.301 C 10320.6,407.102 9860.05,287.5 9416.19,161.898 8923.09,22.1992 8439.6,-128 7979.15,-284.598 7468.68,-458.199 6971.03,-645 6500.04,-839.699 5982.94,-1053.6 5480.64,-1284.2 5007.1,-1525.2 c -163.78,-83.4 -325.19,-169.6 -485.32,-257.1 h 62.59 m -6197.62,0 c 387.36,333.8 791.113,641.2 1211.633,919.499 726.84,480.301 1540.657,904.6994 2418.867,1261.5 806.19,327.199 1677.31,605.701 2663.08,851.701 829.77,206.8 1731.14,388 2755.61,554 813.96,131.7 1685.54,250.9 2664.56,364.4 403.1,46.7 821.1,92 1242.5,134.4 385.2,38.9 774.8,75.6 1158.2,109.4 358.3,31.4 715,60.6 1060.3,86.7 325.7,24.5 646.4,46.6 953.2,65.7 289.9,18 572.9,33.6 841.1,46.4 249.5,11.9 494.2,21.8 727.4,29.2 211.1,6.8 418,11.9 615,15 173.4,2.7 343.8,4.1 506.4,4.1 162.7,0 333.1,-1.4 506.4,-4.1 197,-3.1 404,-8.2 615.1,-15 233.2,-7.4 477.9,-17.3 727.4,-29.2 268.2,-12.8 551.2,-28.4 841,-46.4 306.9,-19.1 627.6,-41.2 953.3,-65.7 345.2,-26.1 702,-55.3 1060.3,-86.7 383.4,-33.8 773.1,-70.5 1158.2,-109.4 421.4,-42.4 839.4,-87.7 1242.5,-134.4 979,-113.5 1850.6,-232.7 2664.5,-364.4 1024.5,-166 1925.9,-347.2 2755.6,-554 985.8,-246 1856.9,-524.502 2663.1,-851.701 878.3,-356.8006 1692.1,-781.199 2418.9,-1261.5 420.5,-278.299 824.3,-585.699 1211.6,-919.499 h 45.4 c -397,344.3 -811.4,660.7 -1243.4,946.499 -728.3,481.203 -1543.6,906.5002 -2423.4,1263.903 -807.3,327.597 -1679.5,606.498 -2666.4,852.698 -830.4,207 -1732.4,388.4 -2757.6,554.5 -814.3,131.7 -1686.2,251 -2665.5,364.5 -403.2,46.8 -821.4,92 -1242.9,134.5 -385.3,38.8 -775,75.6 -1158.5,109.3 -358.4,31.5 -715.3,60.7 -1060.6,86.8 -325.8,24.5 -646.7,46.7 -953.6,65.7 -289.9,18 -573,33.7 -841.4,46.5 -249.6,11.9 -494.4,21.7 -727.7,29.2 -211.3,6.8 -418.4,11.8 -615.5,15 -173.5,2.7 -344,4.1 -506.8,4.1 -162.7,0 -333.2,-1.4 -506.7,-4.1 -197.2,-3.2 -404.2,-8.2 -615.5,-15 -233.3,-7.5 -478.1,-17.3 -727.7,-29.2 -268.4,-12.8 -551.5,-28.5 -841.4,-46.5 -307,-19 -627.8,-41.2 -953.6,-65.7 -345.4,-26.1 -702.2,-55.3 -1060.6,-86.8 -383.5,-33.7 -773.2,-70.5 -1158.5,-109.3 -421.5,-42.5 -839.7,-87.7 -1242.9,-134.5 C 9118.38,2086.3 8246.47,1967 7432.14,1835.3 6407,1669.2 5504.99,1487.8 4674.55,1280.8 3687.65,1034.6 2815.47,755.699 2008.17,428.102 1128.41,70.6992 313.074,-354.5 -415.215,-835.801 -847.176,-1121.6 -1261.57,-1438 -1658.6,-1782.3 h 45.35 M 41591.6,-1259 c -5.3,12.9 -552.3,1302.9023 -1787.6,2496.3 -1003.2,968 -2899.6,2191.31 -6236.9,2522.51 -1524.4,149.74 -3228.4,150.9 -4842.8,130.02 -623.7,-8.22 -1265.6,-20.4 -1886.3,-32.18 -222.8,-4.23 -445.9,-8.46 -669,-12.54 -961.8,-17.66 -1738,-28.77 -2442.7,-35.01 -380.8,-3.38 -762.3,-5.57 -1133.9,-6.52 -346.4,-0.84 -701.7,-0.81 -1056.1,0.34 -331.9,1 -654.7,2.87 -967.7,5.17 -300.9,2.2 -591.8,4.85 -872,7.56 l -772.5,7.63 c -234.8,2.32 -458.8,4.39 -671.7,6.1 -201.6,1.58 -392.3,2.83 -572.2,3.65 -169,0.73 -327.5,1.12 -475.6,1.12 -148,0 -306.5,-0.39 -475.5,-1.12 -179.9,-0.82 -370.7,-2.07 -572.2,-3.65 -212.9,-1.71 -436.9,-3.78 -671.7,-6.1 l -772.5,-7.63 c -280.2,-2.71 -571.1,-5.36 -872.1,-7.56 -312.9,-2.3 -635.7,-4.17 -967.6,-5.17 -354.4,-1.15 -709.7,-1.21 -1056.1,-0.34 -371.6,0.95 -753.1,3.14 -1133.9,6.52 -704.73,6.24 -1480.92,17.35 -2442.72,35.01 -223.09,4.08 -446.11,8.31 -668.87,12.54 -620.8,11.78 -1262.74,23.96 -1886.41,32.18 C 4070.65,3910.77 2366.6,3909.52 842.152,3759.81 -2495.15,3428.61 -4391.54,2205.3 -5394.74,1237.3 -6630.01,43.9023 -7176.98,-1246.1 -7182.36,-1259 l -24.54,13.5 c 5.41,12.9 554.64,1308.6992 1794.65,2506.6 C -4406.04,2232 -2504.58,3458.96 839.828,3790.86 2365.46,3940.72 4070.32,3942 5685.3,3921 c 623.75,-8.22 1265.72,-20.4 1886.56,-32.18 222.75,-4.23 445.77,-8.46 668.84,-12.54 961.74,-17.66 1737.85,-28.77 2442.5,-35 380.7,-3.39 762.2,-5.58 1133.7,-6.52 346.4,-0.92 701.7,-0.83 1056,0.33 331.9,1.01 654.7,2.86 967.6,5.18 300.9,2.19 591.7,4.84 872,7.55 l 772.4,7.64 c 234.9,2.32 458.9,4.38 671.8,6.09 201.6,1.58 392.4,2.83 572.3,3.65 169,0.73 327.6,1.13 475.6,1.13 148.1,0 306.7,-0.4 475.7,-1.13 179.9,-0.82 370.7,-2.07 572.3,-3.65 212.9,-1.71 436.9,-3.77 671.8,-6.09 l 772.4,-7.64 c 280.2,-2.71 571.1,-5.36 872,-7.55 312.9,-2.32 635.7,-4.17 967.6,-5.18 354.3,-1.19 709.6,-1.25 1056,-0.33 371.5,0.94 752.9,3.13 1133.7,6.52 704.6,6.23 1480.7,17.34 2442.5,35 223.1,4.08 446.1,8.31 668.9,12.54 620.8,11.78 1262.8,23.96 1886.5,32.18 1615,20.85 3319.8,19.75 4845.4,-130.14 3344.5,-331.9 5245.9,-1558.86 6252.1,-2529.66 1240,-1198.0008 1789.3,-2493.8 1794.7,-2506.7 l -24.6,-13.5 m -24387,6145.86 c -140,0 -289.4,0.27 -448.2,1.01 -168.5,0.78 -346.8,2.06 -534.7,4.2 -207.4,2.28 -417.2,5.54 -623.5,9.68 -240.7,4.84 -480.7,11.02 -713.4,18.35 -269.5,8.52 -539.5,18.94 -802.3,30.93 -297.5,13.64 -596.3,29.8 -887.9,48.07 -672.6,42.1 -1348,97.99 -2007.3,166.15 -744.3,76.98 -1499.86,172.78 -2245.7,284.8 -774.2,116.29 -1571.3,255.07 -2369.19,412.44 -1384.8,273.15 -2842.91,615.37 -4588.78,1076.98 -508.1,134.27 -992.786,263.52 -1453.798,386.48 -2069.882,552.02 -3704.802,988.05 -4799.062,1161.84 -1246.73,197.1 -1874.96,133.36 -1881.14,132.63 l -2.54,31.05 c 6.24,0.61 637.08,64.9 1887.4,-132.82 1095.49,-173.96 2730.95,-610.12 4801.506,-1162.35 460.992,-122.95 945.664,-252.21 1453.744,-386.45 1745.37,-461.49 3203,-803.58 4587.27,-1076.61 797.54,-157.35 1594.3,-296.04 2368.13,-412.26 745.47,-111.96 1500.66,-207.76 2244.66,-284.69 659,-68.12 1334,-124.01 2006.3,-166.08 291.5,-18.24 590.1,-34.4 887.5,-48.01 262.7,-11.99 532.5,-22.4 801.9,-30.92 232.7,-7.34 472.6,-13.52 713.1,-18.36 206.3,-4.14 416,-7.4 623.4,-9.68 187.8,-2.13 366,-3.41 534.5,-4.2 158.8,-0.73 308.2,-1 448.1,-1 140,0 289.4,0.27 448.2,1 168.5,0.79 346.7,2.07 534.5,4.2 207.4,2.28 417.1,5.54 623.4,9.68 240.5,4.84 480.5,11.02 713,18.36 269.5,8.52 539.3,18.93 802,30.92 297.3,13.61 596,29.77 887.5,48.01 672.3,42.07 1347.3,97.96 2006.3,166.08 744,76.93 1499.2,172.73 2244.6,284.69 773.9,116.22 1570.6,254.91 2368.2,412.26 1384.2,273.03 2841.9,615.12 4587.3,1076.61 508,134.24 992.6,263.5 1453.6,386.45 2070.6,552.23 3706.1,988.39 4801.6,1162.35 1250.4,197.69 1881.2,133.4 1887.4,132.82 l -2.5,-31.05 c -6.2,0.7 -634.5,64.47 -1881.2,-132.63 -1094.3,-173.79 -2729.2,-609.82 -4799.1,-1161.87 -461,-122.96 -945.7,-252.21 -1453.7,-386.45 -1745.9,-461.61 -3204.1,-803.83 -4588.8,-1076.98 -797.9,-157.37 -1595,-296.15 -2369.2,-412.44 -745.8,-112.02 -1501.4,-207.82 -2245.7,-284.8 -659.4,-68.16 -1334.7,-124.05 -2007.3,-166.15 -291.7,-18.27 -590.5,-34.43 -887.9,-48.07 -262.8,-11.99 -532.8,-22.41 -802.3,-30.93 -232.7,-7.33 -472.7,-13.51 -713.4,-18.35 -206.3,-4.14 -416.1,-7.4 -623.5,-9.68 -187.9,-2.14 -366.2,-3.42 -534.7,-4.2 -158.8,-0.74 -308.2,-1.01 -448.3,-1.01 m 0,946.56 c -132.8,0 -274.1,0.74 -423.9,2.53 -166.8,1.98 -335.6,5.24 -501.6,9.62 -193.7,5.15 -389.4,12 -581.5,20.4 -221.7,9.77 -444.5,21.79 -662,35.73 -246.4,15.8 -496,34.7 -741.7,56.23 -273.1,23.89 -548.6,51.63 -818.9,82.4 -617.7,70.44 -1239.4,160.37 -1848,267.3 -692.2,121.68 -1388.9,269.19 -2070.93,438.51 -735.89,182.71 -1475.57,395.94 -2198.48,633.81 -1470.67,484.01 -2928.06,1087.87 -4331.68,1794.8 -2185.457,1101.05 -4262.24,2457.65 -6172.67,4031.95 -511.16,421.3 -992.69,842.7 -1472.09,1288.3 -317.23,294.8 -483.14,458.5 -484.77,460.1 l 17.74,23.6 c 1.64,-1.6 167.27,-165 484.16,-459.5 478.98,-445.2 960.1,-866.3 1470.84,-1287.2 C -1222.01,11658.9 853.117,10303.5 3036.84,9203.31 4439.36,8496.92 5895.6,7893.52 7365.1,7409.9 c 722.33,-237.65 1461.42,-450.74 2196.73,-633.32 681.47,-169.13 1377.67,-316.56 2069.27,-438.14 608.1,-106.85 1229.4,-196.71 1846.6,-267.06 270.1,-30.77 545.4,-58.5 818.2,-82.4 245.6,-21.46 495,-40.37 741.2,-56.17 217.4,-13.94 440,-25.93 661.6,-35.67 191.9,-8.4 387.4,-15.28 581,-20.4 165.9,-4.41 334.6,-7.64 501.3,-9.61 149.7,-1.8 290.9,-2.53 423.6,-2.53 132.8,0 274,0.73 423.6,2.53 166.8,1.97 335.5,5.2 501.4,9.61 193.5,5.12 389,12 581,20.4 221.6,9.74 444.2,21.73 661.5,35.67 246.3,15.8 495.7,34.71 741.2,56.17 272.9,23.9 548.2,51.63 818.3,82.4 617.2,70.35 1238.5,160.21 1846.5,267.06 691.7,121.58 1387.9,269.01 2069.4,438.14 735.3,182.58 1474.4,395.67 2196.7,633.32 1469.5,483.62 2925.7,1087.02 4328.2,1793.41 2183.8,1100.19 4258.9,2455.59 6167.8,4028.69 510.7,420.9 991.8,842 1470.8,1287.2 316.9,294.5 482.5,457.9 484.2,459.5 l 17.7,-23.6 c -1.6,-1.6 -167.5,-165.3 -484.8,-460.1 -479.4,-445.6 -960.9,-867 -1472.1,-1288.3 -1910.4,-1574.3 -3987.2,-2930.9 -6172.6,-4031.95 -1403.6,-706.93 -2861,-1310.79 -4331.7,-1794.8 -722.9,-237.87 -1462.6,-451.1 -2198.5,-633.81 -681.9,-169.29 -1378.7,-316.83 -2070.9,-438.51 -608.6,-106.93 -1230.3,-196.86 -1848,-267.3 -270.3,-30.77 -545.8,-58.51 -818.9,-82.4 -245.7,-21.53 -495.3,-40.43 -741.8,-56.23 -217.5,-13.94 -440.2,-25.96 -661.9,-35.73 -192.2,-8.4 -387.8,-15.25 -581.5,-20.4 -166,-4.38 -334.8,-7.64 -501.7,-9.62 -149.7,-1.79 -291,-2.53 -423.9,-2.53 m 0,856.46 c -134.2,0 -269.5,1.19 -402,3.56 -156.7,2.8 -315.7,7.31 -472.4,13.37 -180.9,7.03 -364,16.31 -544.4,27.64 -204.6,12.85 -412.2,28.7 -617,47.12 -229.1,20.64 -460.9,45.02 -688.9,72.51 -251.9,30.38 -507.1,65.42 -758.5,104.2 -569.7,87.91 -1144.5,198.75 -1708.5,329.37 -641.1,148.55 -1285.7,326.76 -1915.8,529.65 -686.76,221.15 -1374.11,477.34 -2043.01,761.48 -1407.83,598.23 -2780.56,1339.1 -4080.07,2202.02 -2774.44,1843.5 -4812.375,3999 -6033.43,5482.6 -527.3,640.9 -1016.95,1288.7 -1496.91,1980.2 -327.12,471.4 -497.96,739.7 -499.64,742.4 l 21.98,18.3 c 1.69,-2.6 172.22,-270.5 498.93,-741.3 479.48,-690.8 968.64,-1337.9 1495.42,-1978.2 1219.802,-1482.1 3255.66,-3635.4 6027.27,-5477 1298.18,-862.07 2669.51,-1602.18 4075.91,-2199.8 668.2,-283.83 1354.85,-539.75 2040.85,-760.69 629.5,-202.68 1273.4,-380.7 1913.9,-529.1 563.4,-130.5 1137.6,-241.21 1706.7,-329.03 251.1,-38.75 506.1,-73.76 757.8,-104.11 227.7,-27.43 459.2,-51.81 688.2,-72.45 204.5,-18.38 411.9,-34.22 616.3,-47.06 180.2,-11.29 363.2,-20.58 543.8,-27.58 156.6,-6.06 315.4,-10.57 471.9,-13.37 264.8,-4.74 538.5,-4.74 803.3,0 156.5,2.8 315.3,7.31 471.8,13.37 180.7,7 363.7,16.29 543.9,27.58 204.4,12.84 411.8,28.68 616.3,47.06 228.9,20.64 460.5,45.02 688.2,72.45 251.8,30.35 506.7,65.39 757.8,104.11 569.1,87.82 1143.3,198.53 1706.7,329.03 640.5,148.4 1284.4,326.42 1913.9,529.1 686,220.94 1372.6,476.86 2040.8,760.69 1406.5,597.62 2777.8,1337.73 4075.9,2199.8 2771.6,1841.6 4807.5,3994.9 6027.3,5477 526.8,640.3 1016,1287.4 1495.4,1978.2 326.7,470.8 497.3,738.7 499,741.3 l 22,-18.3 c -1.7,-2.7 -172.6,-271 -499.7,-742.4 -480,-691.5 -969.6,-1339.3 -1496.9,-1980.2 -1221.1,-1483.6 -3259,-3639.1 -6033.4,-5482.6 -1299.5,-862.92 -2672.2,-1603.79 -4080.1,-2202.02 -668.9,-284.14 -1356.3,-540.33 -2043,-761.48 -630.1,-202.89 -1274.7,-381.1 -1915.8,-529.65 -564,-130.62 -1138.8,-241.46 -1708.5,-329.37 -251.3,-38.75 -506.5,-73.82 -758.5,-104.2 -228,-27.49 -459.8,-51.87 -688.9,-72.51 -204.8,-18.42 -412.4,-34.27 -617,-47.12 -180.4,-11.33 -363.6,-20.61 -544.4,-27.64 -156.8,-6.06 -315.7,-10.57 -472.4,-13.37 -132.5,-2.37 -267.8,-3.56 -402.1,-3.56 m 0,778.59 c -127,0 -255.6,1.47 -382.3,4.33 -148,3.34 -298.1,8.7 -446.2,15.91 -168.9,8.19 -341.1,19.06 -511.6,32.33 -190.9,14.89 -385.2,33.21 -577.3,54.43 -213,23.57 -429.1,51.39 -642.4,82.65 -234.3,34.4 -471.7,73.88 -705.6,117.41 -527.3,98.11 -1060.8,221.03 -1585.7,365.38 -594.3,163.5 -1192.5,358.54 -1777.8,579.75 -639.45,241.67 -1279.32,520.51 -1901.92,828.7 C 7346.26,10206.8 6054.59,11018 4834.66,11960.7 3662.26,12867 2533.67,13914 1480.24,15072.4 c -881.373,969.6 -1722.681,2030.9 -2500.56,3154.5 -1332.61,1925.7 -2002.85,3264.9 -2009.47,3278.2 l 23.63,15.4 c 6.59,-13.3 675.94,-1350.6 2007.133,-3274.2 777.125,-1122.5 1617.601,-2182.7 2498.087,-3151.4 1052.31,-1157.2 2179.69,-2203.1 3350.79,-3108.4 1218.55,-941.5 2508.73,-1751.9 3834.71,-2408.52 621.86,-307.83 1260.97,-586.33 1899.64,-827.73 584.6,-220.91 1182.1,-415.73 1775.7,-579.02 524.2,-144.17 1057,-266.93 1583.7,-364.95 233.5,-43.44 470.6,-82.9 704.7,-117.24 212.9,-31.22 428.8,-58.99 641.5,-82.52 191.9,-21.21 385.9,-39.51 576.6,-54.36 170.3,-13.28 342.2,-24.15 510.8,-32.3 147.9,-7.22 297.9,-12.55 445.7,-15.89 252.9,-5.73 510.6,-5.73 763.5,0 147.8,3.34 297.7,8.67 445.7,15.89 168.6,8.15 340.5,19.02 510.8,32.3 190.7,14.85 384.7,33.15 576.6,54.36 212.7,23.53 428.5,51.3 641.5,82.52 234.1,34.34 471.2,73.8 704.7,117.24 526.6,98.02 1059.5,220.78 1583.7,364.95 593.6,163.29 1191,358.11 1775.7,579.02 638.7,241.4 1277.8,519.9 1899.6,827.73 1326,656.62 2616.2,1467.02 3834.7,2408.52 1171.1,905.3 2298.5,1951.2 3350.8,3108.5 880.6,968.6 1721,2028.8 2498.1,3151.3 1331.2,1923.6 2000.6,3260.9 2007.1,3274.2 l 23.7,-15.4 c -6.6,-13.3 -676.9,-1352.5 -2009.5,-3278.2 C 34651.8,17103.4 33810.5,16042.1 32929,15072.5 31875.6,13914 30747,12867 29574.6,11960.7 28354.7,11018 27063,10206.8 25735.5,9549.36 c -622.6,-308.19 -1262.5,-587.03 -1901.9,-828.7 -585.3,-221.21 -1183.5,-416.25 -1777.8,-579.75 -524.9,-144.35 -1058.4,-267.27 -1585.7,-365.38 -233.9,-43.53 -471.3,-83.01 -705.6,-117.41 -213.3,-31.26 -429.4,-59.08 -642.4,-82.65 -192.1,-21.22 -386.4,-39.54 -577.4,-54.43 -170.5,-13.27 -342.6,-24.14 -511.5,-32.33 -148.1,-7.21 -298.3,-12.57 -446.2,-15.91 -126.7,-2.86 -255.3,-4.33 -382.4,-4.33 m 0,710.89 c -120.2,0 -242.9,1.64 -364.4,4.84 -140.2,3.72 -282.5,9.65 -422.8,17.6 -159.7,9 -321.9,20.91 -482.2,35.34 -179.6,16.19 -362,35.98 -542.1,58.84 -416.5,52.94 -840.4,124.69 -1260.1,213.24 -490.2,103.53 -987.1,232.69 -1477,383.92 -552.4,170.59 -1109.2,373.42 -1654.9,602.83 -595.7,250.46 -1192.58,538.73 -1774.18,856.73 -1246.55,682 -2461.64,1521.2 -3611.53,2494.5 -1121.53,949.9 -2204.75,2050.1 -3219.55,3270.1 C 1550.09,17134.4 737.098,18252.5 -20.5742,19440.6 -1352.56,21530 -2030.34,23012 -2037.03,23026.8 l 24.1,14.4 c 6.68,-14.8 683.64,-1494.9 2014.31672,-3582.2 C 758.355,18272 1570.59,17154.9 2415.51,16138.8 c 1013.73,-1218.7 2095.76,-2317.7 3216.03,-3266.5 1148.5,-972.1 2362.1,-1810.3 3607.09,-2491.4 580.83,-317.7 1176.97,-605.52 1771.87,-855.65 544.9,-229.1 1100.9,-431.65 1652.6,-602.03 489.2,-150.99 985.4,-279.97 1474.8,-383.31 419.1,-88.47 842.4,-160.1 1258.2,-212.94 179.8,-22.83 361.9,-42.59 541.2,-58.78 160,-14.4 322,-26.27 481.5,-35.29 140,-7.91 282,-13.82 422,-17.53 242.7,-6.45 485,-6.45 727.6,0 140,3.71 282.1,9.62 422.1,17.53 159.5,9.02 321.5,20.89 481.5,35.29 179.3,16.19 361.3,35.95 541.2,58.78 415.8,52.84 839.1,124.47 1258.2,212.94 489.4,103.34 985.6,232.32 1474.8,383.31 551.7,170.38 1107.7,372.93 1652.6,602.03 594.9,250.13 1191,538.05 1771.9,855.65 1244.9,681.1 2458.5,1519.3 3607,2491.4 1120.3,948.8 2202.3,2047.8 3216.1,3266.5 844.9,1016.1 1657.2,2133.2 2414.1,3320.2 1330.7,2087.3 2007.6,3567.4 2014.3,3582.2 l 24.1,-14.4 c -6.7,-14.8 -684.5,-1496.8 -2016.4,-3586.2 -757.7,-1188.1 -1570.7,-2306.2 -2416.5,-3323.3 -1014.8,-1220 -2098,-2320.2 -3219.5,-3270.1 -1149.9,-973.3 -2365,-1812.5 -3611.5,-2494.5 -581.6,-318 -1178.5,-606.27 -1774.2,-856.73 -545.7,-229.41 -1102.5,-432.24 -1654.9,-602.83 -489.9,-151.23 -986.8,-280.39 -1477,-383.92 -419.7,-88.58 -843.7,-160.3 -1260.1,-213.24 -180.2,-22.86 -362.5,-42.65 -542.1,-58.84 -160.3,-14.43 -322.5,-26.34 -482.3,-35.34 -140.2,-7.95 -282.5,-13.88 -422.7,-17.6 -121.6,-3.2 -244.2,-4.84 -364.5,-4.84 m 0,651.68 c -114.4,0 -231.6,1.74 -348.1,5.18 -132.2,3.92 -267.4,10.16 -401.6,18.6 -150.7,9.49 -304.2,21.97 -456,37.13 -168.7,16.84 -340.5,37.45 -510.7,61.28 -390.2,54.71 -787.8,128.55 -1181.8,219.51 -457.3,105.6 -921.8,237.04 -1380.4,390.65 -515,172.51 -1034.8,377.14 -1545,608.11 -556,251.8 -1114.1,541 -1658.59,859.6 -1169.39,684.5 -2312.83,1524.9 -3398.58,2497.8 -1077.88,966.6 -2121.57,2085.9 -3102.08,3326.9 -817.81,1035.4 -1605.78,2173.3 -2342,3382.2 -1295.43,2127.8 -1958.84,3637.3 -1965.39,3652.3 l 24.31,13.9 c 6.53,-15 669.174,-1522.6 1963.369,-3648.4 735.571,-1207.7 1522.821,-2344.6 2339.871,-3379 979.47,-1239.8 2022.01,-2357.9 3098.67,-3323.4 1084.37,-971.7 2226.34,-1811 3394.2,-2494.6 543.82,-318.1 1101.02,-606.9 1656.22,-858.3 509.5,-230.66 1028.5,-434.95 1542.6,-607.21 457.9,-153.34 921.6,-284.57 1378.2,-389.98 393.3,-90.81 790.2,-164.54 1179.7,-219.15 169.9,-23.77 341.4,-44.35 509.8,-61.15 151.5,-15.13 304.6,-27.58 455.1,-37.08 134,-8.4 268.8,-14.65 400.8,-18.54 232.6,-6.88 462.3,-6.88 694.9,0 132,3.89 266.8,10.14 400.8,18.54 150.5,9.5 303.6,21.95 455.1,37.08 168.4,16.8 339.9,37.38 509.7,61.15 389.6,54.61 786.5,128.34 1179.8,219.15 456.6,105.45 920.3,236.64 1378.2,389.98 514.1,172.26 1033.1,376.55 1542.6,607.21 555.2,251.4 1112.4,540.2 1656.2,858.3 1167.9,683.6 2309.8,1522.9 3394.2,2494.6 1076.7,965.5 2119.2,2083.6 3098.7,3323.4 817,1034.4 1604.3,2171.3 2339.8,3379 1294.3,2125.8 1956.9,3633.4 1963.4,3648.4 l 24.3,-13.9 c -6.5,-15 -669.9,-1524.5 -1965.4,-3652.3 -736.2,-1208.9 -1524.2,-2346.8 -2342,-3382.2 -980.5,-1241 -2024.2,-2360.3 -3102,-3326.9 -1085.8,-972.9 -2229.2,-1813.3 -3398.6,-2497.8 -544.6,-318.7 -1102.6,-607.8 -1658.6,-859.6 -510.2,-230.97 -1030,-435.6 -1545,-608.11 -458.6,-153.61 -923,-285.02 -1380.4,-390.65 -394,-90.96 -791.6,-164.8 -1181.9,-219.51 -170.1,-23.83 -341.9,-44.44 -510.6,-61.28 -151.8,-15.16 -305.3,-27.64 -456,-37.13 -134.3,-8.44 -269.4,-14.68 -401.6,-18.6 -116.5,-3.44 -233.7,-5.18 -348.2,-5.18 m 0,599.57 c -109.6,0 -221.7,1.8 -333.2,5.35 -126.6,4.08 -255.2,10.54 -382.4,19.21 -300.9,20.49 -608.7,54.25 -914.8,100.27 -366.4,55.2 -740.5,129.57 -1111.9,221.04 -428.1,105.51 -863.6,236.52 -1294.2,389.52 -481.4,171.1 -968,373.5 -1446.4,601.8 -520,248.2 -1042.8,533 -1553.9,846.3 -1097.31,673 -2174.12,1497.7 -3200.54,2451.2 -1016.05,944.5 -2000.89,2032.4 -2927.15,3233.9 -792.95,1028.8 -1561.07,2164.5 -2283.04,3375.5 -1281.742,2150.7 -1930.965,3631.7 -1937.367,3646.4 l 24.32,13.9 c 6.403,-14.7 654.895,-1493.9 1935.477,-3642.7 721.35,-1209.9 1488.79,-2344.6 2280.98,-3372.5 925.28,-1200.1 1909.01,-2286.9 2923.9,-3230.2 1025.08,-952.3 2100.45,-1775.9 3196.22,-2448.1 510.3,-312.8 1032.3,-597.1 1551.6,-844.9 477.5,-227.9 963.4,-430 1444,-600.9 429.8,-152.6 864.5,-283.42 1291.8,-388.72 370.7,-91.32 744.1,-165.57 1109.8,-220.6 305.4,-45.97 612.6,-79.64 912.8,-100.09 126.9,-8.65 255.3,-15.1 381.6,-19.15 222.4,-7.12 442.5,-7.12 664.9,0 126.3,4.05 254.7,10.5 381.6,19.15 300.2,20.45 607.4,54.12 912.8,100.09 365.7,55.03 739.1,129.28 1109.8,220.6 427.3,105.3 862,236.12 1291.8,388.72 480.6,170.9 966.4,373 1444,600.9 519.2,247.8 1041.3,532.1 1551.6,844.9 1095.8,672.2 2171.1,1495.8 3196.2,2448.1 1014.9,943.3 1998.6,2030.1 2923.9,3230.2 792.2,1027.9 1559.6,2162.6 2281,3372.5 1280.6,2148.8 1929.1,3628 1935.5,3642.7 l 24.3,-13.9 c -6.4,-14.7 -655.6,-1495.7 -1937.4,-3646.4 -722,-1211 -1490.1,-2346.7 -2283,-3375.5 -926.3,-1201.5 -1911.1,-2289.4 -2927.2,-3233.9 -1026.4,-953.5 -2103.2,-1778.2 -3200.5,-2451.2 -511.1,-313.3 -1033.9,-598.1 -1553.9,-846.3 -478.4,-228.3 -965,-430.7 -1446.5,-601.8 -430.6,-153 -866,-284.01 -1294.1,-389.52 -371.4,-91.47 -745.5,-165.84 -1112,-221.04 -306,-46.02 -613.8,-79.78 -914.7,-100.27 -127.2,-8.67 -255.9,-15.13 -382.4,-19.21 -111.5,-3.55 -223.6,-5.35 -333.3,-5.35 m 0,553.44 c -224.7,0 -455,8.38 -684.4,24.95 -285.6,20.6 -577.6,54.4 -867.9,100.5 -345.6,54.9 -698.6,128.7 -1049.2,219.3 -402.5,104.1 -811.9,233 -1216.7,383.1 -451.5,167.5 -908.3,365.4 -1357.8,588.1 -487.5,241.6 -978.4,518.5 -1459.1,822.9 -507.5,321.5 -1015.71,681.5 -1510.51,1069.8 -508.3,399 -1015.17,838 -1506.49,1304.8 -963.3,915.4 -1900.71,1969.2 -2786.14,3132.2 -761.27,1000.3 -1501.32,2104 -2199.59,3280.4 C 1319.42,23012.4 682.883,24455.7 676.59,24470 l 24.297,14 c 6.277,-14.3 642.113,-1455.9 1888.373,-3556.4 697.65,-1175.4 1437.03,-2278 2197.58,-3277.4 884.48,-1161.7 1820.83,-2214.4 2783.02,-3128.8 490.67,-466.1 996.88,-904.5 1504.49,-1303 494.08,-387.8 1001.55,-747.2 1508.35,-1068.2 479.9,-303.9 970,-580.4 1456.7,-821.6 448.7,-222.3 904.7,-419.8 1355.3,-587 404.1,-149.8 812.7,-278.5 1214.4,-382.4 349.8,-90.4 702,-164 1046.9,-218.8 289.7,-46 581,-79.7 865.9,-100.3 228.9,-16.5 458.6,-24.9 682.7,-24.9 224.2,0 453.9,8.4 682.8,24.9 284.9,20.6 576.2,54.3 865.9,100.3 344.8,54.8 697.1,128.4 1046.9,218.8 401.7,103.9 810.3,232.6 1214.3,382.4 450.7,167.2 906.7,364.7 1355.4,587 486.6,241.2 976.8,517.7 1456.7,821.6 506.8,321.1 1014.3,680.5 1508.3,1068.2 507.6,398.5 1013.8,836.9 1504.6,1303 962.2,914.5 1898.5,1967.1 2783,3128.8 760.5,999.4 1499.9,2102 2197.5,3277.4 1246.3,2100.5 1882.1,3542.1 1888.4,3556.4 l 24.3,-14 c -6.3,-14.3 -642.8,-1457.6 -1890.2,-3559.9 -698.3,-1176.4 -1438.3,-2280.1 -2199.6,-3280.4 -885.4,-1162.9 -1822.7,-2216.8 -2786.1,-3132.2 -491.4,-466.8 -998.2,-905.8 -1506.5,-1304.8 -494.8,-388.3 -1003,-748.3 -1510.5,-1069.8 -480.8,-304.4 -971.7,-581.3 -1459.1,-822.9 -449.5,-222.7 -906.3,-420.6 -1357.8,-588.1 -404.9,-150.1 -814.2,-279 -1216.8,-383.1 -350.5,-90.6 -703.5,-164.4 -1049.1,-219.3 -290.3,-46.1 -582.4,-79.9 -867.9,-100.5 -229.4,-16.57 -459.7,-24.95 -684.5,-24.95 m 0,512.45 c -215.5,0 -436.1,8.4 -655.8,25 -271.4,20.5 -549.1,54 -825.4,99.7 -326.9,54 -660.8,126.5 -992.5,215.3 -379,101.6 -764.9,227.2 -1147,373.4 -424.3,162.4 -854.2,354 -1277.8,569.7 -458,233.2 -919.9,500.2 -1373,793.5 -477.4,309.3 -956.31,655.3 -1423.48,1028.4 -479.64,383.1 -958.71,804.4 -1423.93,1252 -912.89,878.6 -1804.65,1889.3 -2650.52,3004 -729.07,961.2 -1440.39,2021.3 -2114.17,3151.1 -1208.59,2027.3 -1830.52,3415.8 -1836.65,3429.6 l 24.21,14.2 c 6.14,-13.8 627.36,-1400.8 1834.88,-3426.2 673.19,-1128.8 1383.86,-2188 2112.24,-3148.3 844.94,-1113.5 1735.68,-2123 2647.48,-3000.6 464.61,-446.9 943.04,-867.6 1422,-1250.2 466.47,-372.6 944.64,-718.1 1421.34,-1026.8 452.3,-292.9 913.4,-559.4 1370.7,-792.2 422.8,-215.3 851.9,-406.6 1275.3,-568.6 381.3,-145.9 766.4,-271.3 1144.6,-372.7 330.9,-88.6 664.1,-160.9 990.2,-214.8 275.6,-45.5 552.6,-79 823.3,-99.4 219,-16.5 439.1,-24.9 654,-24.9 215,0 435,8.4 654.1,24.9 270.7,20.4 547.7,53.9 823.3,99.4 326.1,53.9 659.2,126.2 990.2,214.9 378.2,101.3 763.3,226.7 1144.6,372.6 423.4,162 852.5,353.3 1275.3,568.6 457.2,232.7 918.4,499.2 1370.7,792.2 476.7,308.7 954.9,654.2 1421.3,1026.8 479,382.6 957.4,803.3 1422,1250.2 911.8,877.6 1802.6,1887.1 2647.5,3000.6 728.4,960.3 1439,2019.5 2112.2,3148.3 1207.6,2025.4 1828.8,3412.4 1834.9,3426.2 l 24.2,-14.2 c -6.1,-13.8 -628,-1402.3 -1836.6,-3429.6 -673.8,-1129.8 -1385.1,-2189.9 -2114.2,-3151.1 -845.8,-1114.7 -1737.6,-2125.4 -2650.5,-3004 -465.2,-447.6 -944.3,-868.9 -1423.9,-1252 -467.2,-373.1 -946.1,-719.1 -1423.5,-1028.4 -453.1,-293.4 -915.1,-560.4 -1373,-793.5 -423.7,-215.7 -853.6,-407.3 -1277.8,-569.7 -382.1,-146.2 -768,-271.8 -1147.1,-373.4 -331.6,-88.8 -665.5,-161.3 -992.4,-215.3 -276.3,-45.7 -554,-79.2 -825.4,-99.7 -219.7,-16.6 -440.3,-25 -655.9,-25 m 0,475.9 c -206.8,0 -418.6,8.3 -629.5,24.8 -258.5,20.2 -523.2,53.2 -786.6,98 -310,52.8 -626.6,123.5 -941.2,210 -358.2,98.6 -722.9,220.2 -1084,361.5 -399.7,156.5 -805.2,341 -1205.3,548.5 -431.6,224 -867.2,480 -1294.7,760.9 -449.8,295.7 -901.9,626.5 -1343.67,983 -453.01,365.7 -906.28,767.5 -1347.21,1194.3 -865.29,837.7 -1713.56,1800.6 -2521.2,2862 -697.38,916.7 -1379.92,1927.3 -2028.68,3003.5 -454.71,754.6 -884.95,1525 -1315.26,2355.3 -302.72,584.3 -462.04,915.9 -463.61,919.2 l 23.82,15 c 1.58,-3.3 160.71,-334.5 463.16,-918.2 430.01,-829.8 859.91,-1599.6 1314.25,-2353.6 648.18,-1075.3 1330.09,-2084.9 2026.8,-3000.7 806.75,-1060.1 1654.01,-2022 2518.26,-2858.7 440.33,-426.2 892.96,-827.4 1345.33,-1192.6 441.11,-356 892.51,-686.2 1341.51,-981.4 426.8,-280.5 861.6,-536 1292.4,-759.6 399.3,-207.1 804.1,-391.2 1202.9,-547.4 360.3,-141 724.2,-262.4 1081.6,-360.7 313.8,-86.3 629.6,-156.8 938.8,-209.5 262.7,-44.7 526.7,-77.6 784.5,-97.7 210.2,-16.4 421.4,-24.8 627.6,-24.8 206.3,0 417.4,8.4 627.7,24.8 257.8,20.1 521.8,53 784.5,97.7 309.2,52.7 625,123.2 938.8,209.5 357.4,98.3 721.3,219.7 1081.6,360.7 398.8,156.2 803.6,340.3 1202.9,547.4 430.7,223.6 865.6,479.1 1292.3,759.6 449.1,295.2 900.5,625.4 1341.6,981.4 452.3,365.1 904.9,766.3 1345.3,1192.6 864.3,836.7 1711.5,1798.6 2518.3,2858.7 696.7,915.8 1378.6,1925.4 2026.8,3000.7 454.3,754 884.2,1523.8 1314.2,2353.6 302.5,583.7 461.6,914.9 463.2,918.2 l 23.8,-15 c -1.6,-3.3 -160.9,-334.9 -463.6,-919.2 -430.3,-830.3 -860.5,-1600.7 -1315.3,-2355.3 -648.7,-1076.2 -1331.3,-2086.8 -2028.6,-3003.5 -807.7,-1061.3 -1655.9,-2024.2 -2521.2,-2862 -441,-426.9 -894.3,-828.7 -1347.2,-1194.3 -441.9,-356.6 -893.9,-687.3 -1343.7,-983 -427.6,-280.9 -863.2,-536.9 -1294.7,-760.9 -400.1,-207.5 -805.6,-392 -1205.3,-548.5 -361.1,-141.3 -725.8,-262.9 -1084.1,-361.5 -314.5,-86.5 -631.1,-157.2 -941.1,-210 -263.5,-44.8 -528.1,-77.8 -786.6,-98 -210.9,-16.5 -422.7,-24.8 -629.6,-24.8 m 0,443 c -198.5,0 -402.2,8.2 -605.2,24.5 -247,19.8 -499.8,52 -751.2,95.8 -294.5,51.4 -595.5,119.9 -894.4,203.7 -338.9,95 -684.4,212.3 -1026.9,348.5 -377.5,150.2 -760.9,327.1 -1139.5,526 -407,213.8 -818.6,458.3 -1223.3,726.7 -424.8,281.8 -852.2,596.7 -1270.4,935.9 -428.27,347.5 -857.6,729.3 -1276.06,1134.7 -820.48,795.2 -1627.52,1708.7 -2398.66,2714.8 -666.43,869.8 -1320.63,1828.1 -1944.43,2848.1 -438.1,716.5 -853.36,1447.6 -1269.51,2235 -293.2,554.8 -447.87,869.7 -449.39,872.8 l 23.7,15.3 c 1.52,-3.1 156,-317.6 448.95,-871.9 415.83,-786.8 830.76,-1517.3 1268.52,-2233.3 623.22,-1019.1 1276.8,-1976.4 1942.57,-2845.4 770.28,-1005 1576.34,-1917.3 2395.8,-2711.6 417.86,-404.9 846.57,-786.1 1274.21,-1133.1 417.5,-338.7 844.2,-653 1268.3,-934.4 404,-267.8 814.8,-511.8 1221,-725.3 377.8,-198.4 760.4,-375 1137.1,-524.9 341.8,-135.8 686.4,-252.8 1024.4,-347.6 298.2,-83.6 598.3,-151.9 892.1,-203.2 250.7,-43.6 502.7,-75.8 749,-95.5 202.4,-16.2 405.4,-24.4 603.3,-24.4 198,0 401,8.2 603.4,24.4 246.3,19.7 498.3,51.9 749,95.5 293.7,51.3 593.9,119.6 892,203.2 338.1,94.8 682.7,211.8 1024.5,347.6 376.7,149.9 759.2,326.5 1137.1,524.9 406.2,213.5 817,457.5 1220.9,725.3 424.2,281.4 850.9,595.7 1268.4,934.4 427.6,347 856.3,728.2 1274.2,1133.1 819.5,794.3 1625.6,1706.6 2395.8,2711.6 665.8,869 1319.3,1826.3 1942.6,2845.4 437.6,715.7 852.5,1446.2 1268.5,2233.3 292.9,554.3 447.4,868.8 449,871.9 l 23.7,-15.3 c -1.6,-3.1 -156.3,-318 -449.4,-872.8 -416.3,-787.6 -831.6,-1518.7 -1269.6,-2235 -623.8,-1020 -1278,-1978.3 -1944.4,-2848.1 -771.1,-1006.1 -1578.1,-1919.5 -2398.7,-2714.8 -418.4,-405.4 -847.7,-787.2 -1276,-1134.7 -418.2,-339.2 -845.6,-654.1 -1270.4,-935.9 -404.7,-268.4 -816.3,-512.9 -1223.3,-726.7 -378.6,-198.9 -762,-375.8 -1139.5,-526 -342.6,-136.2 -688.1,-253.5 -1026.9,-348.5 -299,-83.8 -599.9,-152.3 -894.4,-203.7 -251.4,-43.8 -504.2,-76 -751.2,-95.8 -203.1,-16.3 -406.7,-24.5 -605.3,-24.5 m 0,413.5 c -191.1,0 -387.2,8.1 -582.7,24 -236.3,19.4 -478.1,50.8 -718.6,93.4 -280.6,49.7 -567.2,115.9 -851.9,196.8 -321.4,91.4 -649.4,204 -974.8,334.8 -357.5,143.7 -720.7,312.9 -1079.6,502.9 -385.1,204 -774.7,436.9 -1158,692.2 -401.8,267.8 -806.6,566.8 -1203.1,888.8 -405.5,329.4 -812.66,691.2 -1210.14,1075.4 -395.75,382.5 -791.84,796.8 -1177.26,1231.4 -372.25,419.7 -744.3,869.3 -1105.79,1336.2 -636.46,822.4 -1263.06,1728 -1862.38,2691.5 -421.27,677.4 -821.42,1368.5 -1223.31,2112.5 -283.34,524.6 -433.18,822.3 -434.65,825.2 l 23.55,15.6 c 1.48,-3 151.13,-300.3 434.23,-824.4 401.55,-743.5 801.39,-1433.9 1222.33,-2110.8 598.76,-962.6 1224.75,-1867.3 1860.57,-2688.9 361.08,-466.4 732.7,-915.4 1104.51,-1334.7 384.94,-434 780.5,-847.8 1175.72,-1229.8 396.9,-383.6 803.42,-744.8 1208.32,-1073.7 395.9,-321.5 800,-620.1 1201.1,-887.3 382.5,-254.9 771.3,-487.3 1155.7,-690.9 358.1,-189.6 720.5,-358.4 1077.2,-501.8 324.6,-130.4 651.7,-242.8 972.4,-333.9 283.9,-80.7 569.7,-146.8 849.4,-196.3 239.8,-42.5 480.9,-73.8 716.5,-93.1 194.8,-15.9 390.2,-23.9 580.7,-23.9 190.6,0 386,8 580.8,23.9 235.6,19.3 476.7,50.6 716.5,93.1 279.7,49.5 565.5,115.6 849.4,196.3 320.6,91.1 647.8,203.5 972.4,333.9 356.6,143.4 719.1,312.2 1077.2,501.8 384.4,203.6 773.3,436 1155.7,690.9 401.1,267.2 805.2,565.7 1201.1,887.3 404.8,328.8 811.4,690.1 1208.3,1073.7 395.3,382.2 790.9,795.9 1175.7,1229.8 371.8,419.3 743.5,868.3 1104.5,1334.7 635.9,821.6 1261.8,1726.3 1860.6,2688.9 420.9,676.8 820.7,1367.2 1222.4,2110.8 283,524.1 432.7,821.4 434.2,824.4 l 23.5,-15.6 c -1.5,-2.9 -151.3,-300.6 -434.6,-825.2 -402,-744.2 -802.1,-1435.2 -1223.3,-2112.5 -599.4,-963.5 -1226,-1869.1 -1862.4,-2691.5 -361.5,-466.9 -733.6,-916.5 -1105.8,-1336.2 -385.3,-434.5 -781.4,-848.8 -1177.3,-1231.4 -397.5,-384.2 -804.6,-746 -1210.1,-1075.4 -396.6,-322.1 -801.4,-621.1 -1203.1,-888.8 -383.2,-255.3 -772.8,-488.2 -1158,-692.2 -358.9,-190 -722.2,-359.2 -1079.6,-502.9 -325.4,-130.8 -653.4,-243.4 -974.8,-334.8 -284.8,-80.9 -571.3,-147.1 -851.8,-196.8 -240.6,-42.6 -482.4,-74 -718.7,-93.4 -195.5,-15.9 -391.6,-24 -582.8,-24 m 0,386.8 c -184.4,0 -373.4,8 -561.8,23.5 -226.5,18.9 -458.2,49.3 -688.7,90.6 -267.6,48 -541,111.8 -812.8,189.7 -305.5,87.7 -617.5,195.7 -927.2,321 -339.1,137.2 -684,298.7 -1024.9,479.9 -365,194 -734.5,415.5 -1098.3,658.1 -380.6,254 -764.6,537.5 -1141.2,842.8 -384.6,311.8 -771.2,654.1 -1149.04,1017.3 -375.87,361.4 -752.64,752.7 -1119.86,1163.1 -354.48,396.3 -709.24,820.5 -1054.42,1261 -607.69,775.6 -1207.62,1629.5 -1783.13,2537.7 -404.64,638.8 -789.77,1290.2 -1177.41,1991.6 -273.36,494.6 -418.28,775.3 -419.7,778 l 23.4,15.9 c 1.42,-2.8 146.16,-283 419.27,-777.3 387.33,-700.7 772.13,-1351.6 1176.44,-1989.8 574.95,-907.4 1174.29,-1760.4 1781.36,-2535.3 344.78,-439.9 699.12,-863.7 1053.17,-1259.4 366.73,-409.9 742.99,-800.7 1118.35,-1161.6 377.27,-362.7 763.27,-704.4 1147.27,-1015.8 376,-304.7 759.2,-587.8 1139.2,-841.2 363,-242.2 731.8,-463.2 1096,-656.9 340.2,-180.7 684.2,-341.8 1022.5,-478.7 309,-125 620.1,-232.7 924.8,-320.1 271,-77.7 543.6,-141.4 810.4,-189.2 229.8,-41.1 460.7,-71.5 686.5,-90.2 187.7,-15.6 376.1,-23.5 559.8,-23.5 183.8,0 372.1,7.9 559.9,23.5 225.7,18.7 456.7,49.1 686.5,90.2 266.7,47.8 539.4,111.5 810.3,189.2 304.8,87.4 615.9,195.1 924.9,320.1 338.3,136.9 682.3,298 1022.4,478.7 364.3,193.7 733.1,414.7 1096.1,656.9 380,253.4 763.2,536.5 1139.2,841.2 384,311.4 770,653.1 1147.3,1015.8 375.3,360.9 751.6,751.7 1118.3,1161.6 354.1,395.7 708.4,819.5 1053.2,1259.4 607,774.9 1206.4,1627.9 1781.3,2535.3 404.3,638.1 789.1,1289 1176.5,1989.8 273.1,494.3 417.8,774.5 419.2,777.3 l 23.5,-15.9 c -1.5,-2.7 -146.4,-283.4 -419.7,-778 -387.8,-701.5 -772.9,-1352.9 -1177.5,-1991.6 -575.5,-908.2 -1175.4,-1762.1 -1783.1,-2537.7 -345.2,-440.5 -699.9,-864.7 -1054.4,-1261 -367.2,-410.4 -744,-801.7 -1119.9,-1163.1 -377.8,-363.2 -764.4,-705.5 -1149,-1017.3 -376.6,-305.3 -760.6,-588.8 -1141.2,-842.7 -363.8,-242.7 -733.3,-464.2 -1098.3,-658.2 -341,-181.2 -685.8,-342.7 -1024.9,-479.9 -309.7,-125.3 -621.7,-233.3 -927.2,-321 -271.8,-77.9 -545.3,-141.7 -812.8,-189.7 -230.5,-41.3 -462.3,-71.7 -688.8,-90.6 -188.3,-15.5 -377.3,-23.5 -561.8,-23.5 m 0,362.7 c -178.2,0 -360.7,7.8 -542.3,22.9 -217.4,18.3 -439.9,47.8 -661.1,87.7 -255.6,46.2 -516.9,107.6 -776.9,182.6 -291.5,84 -588.7,187.4 -883.7,307.1 -322.2,130.8 -650.1,284.7 -974.7,457.4 -346.5,184.4 -697.6,394.7 -1043.5,625 -361.2,240.7 -726,509.2 -1084.2,798.2 -365.2,294.9 -732.8,618.4 -1092.4,961.6 -357.28,341 -716.01,710.3 -1066.23,1097.5 -337.88,373.8 -676.33,773.7 -1005.95,1188.6 -580.5,730.9 -1154.86,1534.9 -1707.13,2389.6 -388.45,601.4 -758.84,1214.6 -1132.29,1874.4 -263.43,465.6 -403.38,729.8 -404.77,732.4 l 23.24,16.1 c 1.4,-2.6 141.16,-266.4 404.34,-731.5 373.14,-659.3 743.21,-1271.9 1131.34,-1872.8 551.72,-853.9 1125.48,-1657.1 1705.37,-2387.2 329.22,-414.5 667.27,-813.8 1004.73,-1187.1 349.74,-386.8 707.97,-755.6 1064.75,-1096.1 359.1,-342.6 726,-665.6 1090.7,-960 357.5,-288.5 721.6,-556.6 1082.1,-796.7 345.2,-229.9 695.6,-439.7 1041.3,-623.8 323.8,-172.2 651,-325.7 972.4,-456.2 294.1,-119.4 590.6,-222.4 881.3,-306.3 259.1,-74.7 519.7,-136 774.4,-182 220.5,-39.8 442.2,-69.2 658.9,-87.4 181,-15.1 362.8,-22.8 540.3,-22.8 177.6,0 359.4,7.7 540.4,22.8 216.7,18.2 438.4,47.6 658.9,87.4 254.7,46 515.3,107.3 774.4,182 290.7,83.9 587.2,186.9 881.3,306.3 321.4,130.5 648.5,284 972.3,456.2 345.8,184.1 696.2,393.9 1041.4,623.8 360.5,240.2 724.6,508.3 1082.1,796.7 364.6,294.4 731.6,617.4 1090.7,960 356.7,340.5 715,709.3 1064.7,1096.1 337.4,373.2 675.5,772.6 1004.8,1187.1 579.9,730.1 1153.6,1533.3 1705.3,2387.2 388.2,600.9 758.2,1213.5 1131.4,1872.8 263.2,465.1 402.9,728.9 404.3,731.5 l 23.3,-16.1 c -1.4,-2.6 -141.4,-266.8 -404.8,-732.4 -373.5,-659.8 -743.9,-1273 -1132.3,-1874.4 -552.3,-854.7 -1126.6,-1658.7 -1707.1,-2389.6 -329.7,-415 -668.2,-814.9 -1006,-1188.6 -350.2,-387.3 -709,-756.6 -1066.2,-1097.5 -359.7,-343.2 -727.2,-666.7 -1092.4,-961.6 -358.2,-289 -722.9,-557.5 -1084.2,-798.2 -345.9,-230.3 -697,-440.6 -1043.5,-625 -324.6,-172.7 -652.5,-326.6 -974.8,-457.4 -294.8,-119.7 -592.1,-223 -883.6,-307.1 -260,-75 -521.4,-136.4 -776.9,-182.6 -221.3,-39.9 -443.7,-69.4 -661.1,-87.7 -181.6,-15.1 -364.1,-22.9 -542.4,-22.9 m 0,340.7 c -172.2,0 -348.6,7.5 -524.1,22.3 -209,17.7 -422.8,46.2 -635.5,84.7 -244.7,44.5 -494.9,103.5 -743.9,175.5 -278.2,80.4 -562,179.2 -843.6,293.6 -307,124.7 -619.4,271.2 -928.7,435.5 -329.3,175 -663.5,374.6 -993.1,593.3 -343.3,227.8 -690.4,482 -1031.6,755.6 -347.2,278.5 -697,584.1 -1039.9,908.4 -340,321.6 -681.95,669.9 -1016.15,1035.1 -321.92,351.9 -645.02,728.6 -960.31,1119.7 -554.48,687.9 -1104.41,1444.4 -1634.52,2248.6 -372.65,565.4 -728.65,1142 -1088.38,1762.6 -253.66,437.7 -388.68,686 -390.01,688.5 l 23.07,16.5 c 1.35,-2.5 136.18,-250.5 389.59,-687.8 359.42,-620 715.12,-1196.1 1087.42,-1761 529.57,-803.4 1078.93,-1559.1 1632.8,-2246.3 314.91,-390.6 637.59,-766.8 959.11,-1118.2 333.73,-364.7 675.18,-712.5 1014.68,-1033.7 342.3,-323.7 691.6,-628.8 1038.2,-906.8 340.6,-273.1 687,-526.9 1029.6,-754.2 329,-218.2 662.4,-417.4 991,-592 308.4,-163.9 620.1,-310.1 926.3,-434.4 280.8,-114.1 563.8,-212.6 841.2,-292.8 248.1,-71.8 497.6,-130.6 741.4,-174.8 212,-38.5 425.1,-66.9 633.3,-84.5 174.9,-14.8 350.5,-22.2 522.1,-22.2 171.7,0 347.3,7.4 522.2,22.2 208.2,17.6 421.3,46 633.3,84.5 243.8,44.2 493.3,103 741.4,174.8 277.4,80.2 560.4,178.7 841.2,292.8 306.2,124.3 617.8,270.5 926.3,434.4 328.6,174.6 662,373.8 991,592 342.6,227.3 689,481.1 1029.6,754.2 346.5,277.9 695.8,583 1038.2,906.8 339.6,321.3 681,669.1 1014.7,1033.7 321.5,351.4 644.2,727.6 959.1,1118.2 553.8,687.1 1103.2,1442.8 1632.8,2246.3 372.3,564.9 728,1141 1087.4,1761 253.4,437.3 388.2,685.3 389.6,687.8 l 23.1,-16.5 c -1.4,-2.5 -136.4,-250.8 -390.1,-688.5 -359.7,-620.6 -715.7,-1197.2 -1088.3,-1762.6 -530.2,-804.3 -1080.1,-1560.8 -1634.6,-2248.6 -315.3,-391.1 -638.3,-767.8 -960.3,-1119.7 -334.1,-365.1 -676,-713.4 -1016.1,-1035.1 -342.9,-324.3 -692.8,-629.9 -1040,-908.4 -341.1,-273.6 -688.2,-527.8 -1031.5,-755.6 -329.7,-218.7 -663.8,-418.3 -993.1,-593.3 -309.3,-164.3 -621.8,-310.8 -928.7,-435.5 -281.6,-114.4 -565.5,-213.2 -843.6,-293.6 -249,-72 -499.2,-131 -743.9,-175.5 -212.7,-38.5 -426.6,-67 -635.5,-84.7 -175.5,-14.8 -351.9,-22.3 -524.2,-22.3 M -5505,-1782.3 c 25.34,214.3 50.73,426.7 76.19,636.1 96.59,794.102 196.64,1573.399 297.36,2316.3 101.07,745.4 205.85,1476.2 311.37,2171.85 105.45,695.03 214.81,1375.81 325.07,2023.38 109.98,645.63 223.82,1275.69 338.33,1872.7 114.07,594.46 232.19,1173.75 351.07,1721.87 117.9,543.49 240.07,1072.6 363.14,1572.5 121.5,493.6 247.48,973.5 374.45,1426.2 124.89,445.4 254.4,877.4 384.89,1284.3 128.04,399.1 260.72,785.3 394.35,1147.9 130.84,354.9 266.34,697.4 402.71,1018 133.06,312.7 270.97,613.9 409.9,895.4 135.02,273.4 274.92,536.1 415.81,780.7 268.149,465.3 552.071,886.1 843.876,1250.8 270.2692,337.6 556.429,638.5 850.566,894.3 268.727,233.6 553.148,437.4 845.368,605.8 494.79,284.9 1042.42,484.6 1627.69,593.7 451.5,83.8 931.99,117.9 1468.77,104.8 876.92,-22.2 1648.77,-153.7 2159.5,-240.6 l 7.86,-1.3 c 500.73,-85.4 796.54,-142.9 799.46,-143.5 l 4.57,30.8 c -2.93,0.5 -298.99,58.1 -800.04,143.5 l -7.86,1.3 c -511.41,87.1 -1284.26,218.7 -2162.9,240.9 -538.54,13.3 -1020.58,-21 -1473.71,-105.2 -588.01,-109.5 -1138.3,-310.3 -1635.55,-596.5 -293.69,-169.3 -579.537,-374.1 -849.599,-608.8 -295.411,-257 -582.7855,-559.1 -854.161,-898.1 -292.773,-365.9 -577.585,-788.1 -846.51,-1254.7 -141.25,-245.2 -281.47,-508.5 -416.79,-782.6 -139.21,-282 -277.38,-583.8 -410.7,-897.1 -136.58,-321 -272.27,-664 -403.31,-1019.5 -133.79,-363 -266.63,-749.6 -394.82,-1149.2 -130.64,-407.3 -260.25,-839.8 -385.26,-1285.5 -127.05,-453.2 -253.13,-933.4 -374.74,-1427.3 -123.13,-500.3 -245.38,-1029.68 -363.34,-1573.48 C -3950.94,8419.05 -4069.1,7839.43 -4183.23,7244.73 -4297.8,6647.48 -4411.68,6017.17 -4521.7,5371.3 -4632,4723.51 -4741.4,4042.55 -4846.87,3347.31 -4952.42,2651.4 -5057.21,1920.5 -5158.32,1174.9 c -100.75,-743.002 -200.82,-1522.599 -297.41,-2316.8 -25.63,-210.8 -51.21,-424.7 -76.71,-640.4 h 27.44 m 2101.19,0 c 74.56,456.8 150.42,906.601 226.42,1341.8 99.39,569 201.92,1130.199 304.71,1667.7 103.36,540.5 209.91,1072.5 316.72,1581.1 106.95,509.26 217.35,1010.54 328.17,1489.86 110.6,478.29 224.65,947.94 339,1395.88 113.88,446.05 231.35,883.58 349.13,1300.37 116.85,413.45 237.45,818.72 358.46,1204.59 119.62,381.27 243.087,754.6 366.993,1109.6 122.043,349.61 248.047,691.6 374.512,1016.5 124.195,318.9 252.402,630.5 381.0856,926 248.8474,571.4 510.4494,1108.1 777.5354,1595.3 252.906,461.1 518.814,892.5 790.314,1282.1 253.97,364.4 520.93,703.8 793.43,1009 251.55,281.6 516.21,543.4 786.61,778 246.31,213.5 505.38,411.4 769.97,588.3 452.98,302.4 928.23,550.2 1452.91,757.6 397.33,156.8 816.69,287.9 1282.02,400.8 744.5,180.4 1390.8,269.3 1818.46,328.2 l 33.55,4.6 c 423.65,58.2 671.23,88.7 673.69,89 l -2.89,31 c -2.47,-0.3 -250.2,-30.8 -674.04,-89.1 l -33.54,-4.6 c -428.15,-58.9 -1075.17,-148 -1820.85,-328.6 -466.43,-113.1 -886.85,-244.6 -1285.26,-401.9 -526.38,-208 -1003.21,-456.6 -1457.74,-760.1 -265.53,-177.5 -525.5,-376.1 -772.69,-590.4 -271.3,-235.4 -536.82,-498 -789.2,-780.5 -273.3,-306 -541.01,-646.5 -795.67,-1011.8 -272.13,-390.6 -538.645,-822.9 -792.098,-1285 -267.558,-488 -529.589,-1025.7 -778.8317,-1598 -128.8553,-295.9 -257.2343,-607.9 -381.5903,-927.2 -126.613,-325.2 -252.761,-667.62 -374.941,-1017.63 -124.016,-355.31 -247.599,-729 -367.319,-1110.65 -121.11,-386.14 -241.81,-791.73 -358.75,-1205.48 -117.86,-417.11 -235.4,-854.91 -349.36,-1301.24 -114.4,-448.18 -228.53,-918.1 -339.19,-1396.66 -110.86,-479.54 -221.31,-981.05 -328.32,-1490.54 -106.84,-508.9 -213.43,-1041 -316.83,-1581.7 -102.84,-537.798 -205.39,-1099.099 -304.82,-1668.298 -76.33,-437.102 -152.52,-889.102 -227.4,-1347.902 h 27.64 m 2466.189,0 c 145.648,678.1 295.164,1337.702 445.976,1966.101 191.536,798 390.926,1570.599 592.625,2296.499 203.059,730.48 414.61,1435.74 628.754,2096.18 212.575,655.43 434.256,1286.87 658.876,1876.78 220,577.62 449.58,1133.11 682.35,1651.04 225.15,500.81 460.16,981.81 698.52,1429.63 227.71,427.69 465.58,838.47 706.99,1220.87 227.8,360.7 465.82,707.4 707.45,1030.4 225.39,301.1 460.91,591 700.01,861.6 419.22,474.2 872.44,914.7 1347.04,1309 882.01,732.1 1734.03,1222.6 2298.18,1527.9 577.32,312.1 1064.45,544.6 1420.14,714.4 l 647.11,309.4 -10.4,28.8 -647.17,-309.4 C 9582.9,16057 9095.44,15824.3 8517.55,15511.8 7952.42,15206.1 7098.86,14714.7 6215.01,13981.1 5739.3,13585.8 5285.04,13144.4 4864.83,12669 c -239.64,-271.2 -475.67,-561.7 -701.55,-863.5 -242.11,-323.6 -480.6,-671 -708.85,-1032.4 C 3212.62,10390 2974.35,9978.54 2746.27,9550.18 2507.58,9101.72 2272.24,8620.05 2046.8,8118.57 1813.75,7600.04 1583.92,7043.94 1363.7,6465.75 1138.87,5875.31 916.988,5243.33 704.242,4587.32 489.953,3926.45 278.27,3220.7 75.0664,2489.7 -126.742,1763.4 -326.223,990.402 -517.848,192.102 -669.305,-438.898 -819.414,-1101.3 -965.621,-1782.3 h 28 m 2773.121,0 c 146.82,552.9 297.86,1096.499 449.53,1616.3 164.39,563.199 334.32,1115.902 505.04,1642.6 173.87,536.4 353.89,1062.2 535.02,1562.9 181.6,501.83 369.82,993.43 559.38,1461.1 187.41,462.3 381.79,915.11 577.77,1345.86 191.43,420.66 389.93,832.5 589.99,1224.12 376.36,736.55 777.2,1438.42 1191.37,2086.12 366.51,572.93 758.61,1127 1165.42,1646.9 341.43,436.1 709.52,868.8 1094.02,1286.1 670,726.8 1300.87,1316.6 1829.66,1797.6 972.9,884.8 1613.4,1446.3 1619.8,1451.9 l -16.6,24.8 c -6.3,-5.6 -647,-567.3 -1620.1,-1452.3 C 9786.56,13430.3 9155.1,12840 8484.34,12112.4 8099.3,11694.5 7730.71,11261.2 7388.78,10824.4 6981.38,10303.8 6588.71,9748.87 6221.66,9175.15 5806.95,8526.6 5405.61,7823.81 5028.76,7086.35 4828.49,6694.3 4629.77,6281.97 4438.13,5860.88 4241.97,5429.71 4047.4,4976.48 3859.81,4513.74 3670.08,4045.65 3481.73,3553.66 3299.97,3051.4 3118.72,2550.4 2938.59,2024.2 2764.58,1487.5 2593.76,960.5 2423.73,407.5 2259.24,-156.199 2106.67,-679.102 1954.72,-1225.9 1807.06,-1782.3 h 28.44 m 2975.44,0 c 170.79,565.5 345.72,1119.499 522.07,1652.8 259.27,783.898 530.16,1549.3 805.15,2274.9 283.72,748.4 581.48,1479.89 885.01,2174.19 295.25,675.12 606.56,1339.25 925.3,1973.86 294.04,585.22 605.93,1168.36 927.02,1733.13 508.1,893.44 1071.32,1797.72 1721.81,2764.52 463.7,688.9 886.4,1287.7 1259.3,1816.1 l 112,158.6 c 733.5,1039.9 1202.2,1732.9 1206.8,1739.8 l -21.4,19.1 c -4.7,-6.9 -473.3,-699.6 -1206.6,-1739.3 l -111.9,-158.6 c -373,-528.5 -795.9,-1127.5 -1259.7,-1816.7 C 9924.85,9842.69 9361.22,8937.74 8852.71,8043.62 8531.35,7478.34 8219.19,6894.75 7924.92,6309.04 7605.91,5673.88 7294.34,5009.23 6998.87,4333.53 6695.11,3638.75 6397.14,2906.7 6113.23,2157.8 5838.07,1431.8 5567.02,665.898 5307.6,-118.398 5130.09,-655.199 4954.07,-1212.9 4782.21,-1782.3 h 28.73 m 3039.91,0 C 8126.4,-884.199 8414.72,4.60156 8709.52,861.102 9087.14,1957.9 9511.37,3103.44 9936.36,4173.93 c 393.14,990.07 835.74,2040.43 1315.24,3121.85 410.5,925.47 804.7,1779.92 1206,2646.45 l 25.4,54.92 c 343.5,741.75 668,1442.45 930.9,2022.15 517.4,1140.8 841.3,1912 844.5,1919.7 l -24.5,13.5 c -3.2,-7.7 -326.9,-778.5 -844.1,-1918.8 -262.9,-579.6 -587.3,-1280.2 -930.8,-2021.9 l -25.5,-54.96 C 12032.2,9090.19 11637.9,8235.61 11227.4,7309.9 10747.6,6228.09 10305,5177.33 9911.61,4186.84 9486.44,3115.89 9062.02,1969.9 8684.23,872.602 8388.17,12.4023 8098.62,-880.301 7821.99,-1782.3 h 28.86 m 3035.75,319.1 -26.1,9.1 c 3.2,12.1 325.5,1225.998 803.6,2903.2 440.2,1544.1 1009.4,3450.7 1602.9,5432.38 591.4,1974.8 1050.8,3551.32 1365.5,4685.72 332.7,1199.7 539.4,2013 541.5,2021 l 26.1,-8.7 c -2.1,-8 -208.9,-821.6 -541.7,-2021.7 -314.7,-1134.7 -774.2,-2711.42 -1365.7,-4686.43 -593.5,-1981.59 -1162.6,-3888.07 -1602.8,-5431.97 -478,-1676.9 -800.1,-2890.5 -803.3,-2902.6 m 2814.4,866.2 -26.6,6.199 c 1.7,9.602 173.8,972.801 418.7,2360.701 335.6,1901.39 611.6,3502.1 843.7,4893.65 558.4,3348.35 1035,6682.85 1039.7,6716.15 l 26.9,-5 c -4.8,-33.3 -481.4,-3368.3 -1039.9,-6717 -232.2,-1391.67 -508.1,-2992.5 -843.7,-4894 C 13874.8,375.801 13702.7,-587.398 13701,-597 m 2101.9,369 -27.1,2.5 c 330.6,4657.15 623.6,9201.5 870.8,13506.9 l 27.1,-2.1 C 16426.5,8973.78 16133.5,4429.27 15802.9,-228 m 1415.3,82.5 h -27.1 v 13400.8 h 27.1 V -145.5 m 1388.2,-82.5 c -330.6,4657.27 -623.6,9201.78 -870.8,13507.3 l 27.1,2.1 c 247.2,-4305.4 540.2,-8849.75 870.8,-13506.9 l -27.1,-2.5 m 2101.9,-369 c -1.8,9.602 -173.8,972.801 -418.8,2360.7 -335.7,1902.44 -611.7,3503.28 -843.7,4894 -558.5,3348.7 -1035.1,6683.7 -1039.9,6717 l 26.9,5 c 4.7,-33.3 481.3,-3367.8 1039.7,-6716.15 232,-1390.64 507.9,-2991.34 843.7,-4893.65 244.9,-1387.9 417,-2351.099 418.7,-2360.701 l -26.6,-6.199 m 2814.4,-866.2 c -3.2,12.1 -325.3,1225.7 -803.3,2902.6 -440.2,1543.9 -1009.3,3450.38 -1602.8,5431.97 -591.5,1975.01 -1051,3551.73 -1365.7,4686.43 -332.8,1200.1 -539.7,2013.7 -541.7,2021.7 l 26.1,8.7 c 2.1,-8 208.8,-821.3 541.5,-2021 314.7,-1134.4 774.1,-2710.92 1365.5,-4685.72 593.5,-1981.68 1162.7,-3888.28 1602.9,-5432.38 478.1,-1677.202 800.4,-2891.1 803.6,-2903.2 l -26.1,-9.1 m -1594.2,11455.72 23.2,-50.29 c 401.5,-866.9 795.8,-1721.62 1206,-2646.45 479.5,-1081.42 922,-2131.78 1315.2,-3121.85 425,-1070.49 849.2,-2216.03 1226.9,-3312.828 294.8,-856.50044 583.1,-1745.301 858.6,-2643.402 h 28.9 c -276.6,901.999 -566.2,1794.7023 -862.2,2654.902 -377.8,1097.298 -802.3,2243.288 -1227.4,3314.238 -393.4,990.49 -836.1,2041.25 -1315.8,3123.06 -410.3,925.05 -804.6,1779.92 -1206.1,2646.94 l -23.3,50.26 c -344.4,743.5 -669.6,1445.8 -933,2026.6 -517.2,1140.3 -840.9,1911.1 -844.1,1918.8 l -24.5,-13.5 c 3.2,-7.7 327,-778.9 844.5,-1919.7 263.5,-580.9 588.7,-1283.2 933.1,-2026.78 m 624.1,2614.68 c 373,-528.4 795.7,-1127.2 1259.4,-1816.1 650.4,-966.65 1213.6,-1870.92 1721.8,-2764.52 321.1,-564.77 633,-1147.91 927,-1733.1 318.8,-634.64 630.1,-1298.77 925.3,-1973.89 303.5,-694.08 601.2,-1425.59 885,-2174.19 275,-725.6 545.9,-1491.002 805.2,-2274.9 176.3,-533.098 351.2,-1087.1 522,-1652.8 h 28.8 c -171.9,569.5 -348,1127.3 -525.4,1663.902 -259.4,784.296 -530.5,1550.198 -805.6,2276.198 -284,749.1 -582,1481.19 -885.7,2175.73 -295.5,675.7 -607,1340.35 -926,1975.51 -294.3,585.71 -606.5,1169.3 -927.8,1734.58 -508.6,894.27 -1072.2,1799.22 -1723.1,2766.48 -463.9,689.2 -886.7,1288.2 -1259.7,1816.7 l -111.9,158.6 c -733.3,1039.7 -1201.9,1732.4 -1206.6,1739.3 l -21.4,-19.1 c 4.6,-6.9 473.3,-699.9 1206.8,-1739.8 l 111.9,-158.6 m 3353.7,-517.5 c 384.4,-417.3 752.5,-850 1094,-1286.1 406.8,-519.9 798.9,-1074.03 1165.4,-1646.9 414.2,-647.79 815.1,-1349.67 1191.4,-2086.12 200,-391.62 398.5,-803.46 589.9,-1224.12 196,-430.75 390.4,-883.56 577.8,-1345.86 189.6,-467.67 377.8,-959.27 559.4,-1461.1 181.1,-500.7 361.2,-1026.5 535,-1562.9 170.9,-527.1 340.8,-1079.799 505.1,-1642.6 151.7,-520.301 302.8,-1063.8 449.5,-1616.3 h 28.4 c -147.5,555.9 -299.4,1102.8 -452.2,1626.101 C 31985.7,407 31815.7,960 31644.7,1487.5 c -174,536.7 -354.1,1062.9 -535.4,1563.9 -181.7,502.26 -370.1,994.25 -559.8,1462.34 -187.6,462.74 -382.2,915.97 -578.3,1347.14 -191.7,421.09 -390.4,833.42 -590.7,1225.47 -376.8,737.37 -778.1,1440.13 -1192.9,2088.8 -367,573.69 -759.7,1128.55 -1167.1,1649.25 -341.9,436.8 -710.5,870.1 -1095.6,1288 -670.7,727.6 -1302.2,1317.9 -1831.4,1799.3 -973.1,885 -1613.8,1446.7 -1620.1,1452.3 l -16.6,-24.8 c 6.4,-5.6 646.9,-567.1 1619.8,-1451.9 528.8,-481 1159.7,-1070.8 1829.7,-1797.6 m -26.2,3394 c 564.2,-305.3 1416.2,-795.8 2298.2,-1527.9 474.6,-394.3 927.8,-834.8 1347.1,-1309 239.1,-270.6 474.6,-560.5 700,-861.6 241.6,-323 479.6,-669.7 707.4,-1030.4 241.4,-382.3 479.2,-793.06 707,-1220.87 238.3,-447.76 473.3,-928.76 698.5,-1429.63 232.8,-517.99 462.4,-1073.48 682.4,-1651.04 224.6,-589.82 446.3,-1221.26 658.9,-1876.78 214.2,-660.81 425.8,-1366.1 628.7,-2096.18 201.7,-725.9 401.1,-1498.499 592.6,-2296.499 150.8,-628.399 300.4,-1288.001 446,-1966.101 h 28 c -146.2,681 -296.3,1343.402 -447.8,1974.402 -191.6,798.3 -391.1,1571.298 -592.9,2297.598 -203.1,730.61 -414.7,1436.35 -629.1,2097.62 -212.8,656.07 -434.7,1288.05 -659.5,1878.43 -220.2,578.13 -450,1134.23 -683.1,1652.85 -225.5,501.51 -460.8,983.15 -699.5,1431.58 -228.1,428.49 -466.4,839.92 -708.1,1222.92 -228.3,361.4 -466.8,708.8 -708.9,1032.4 -225.9,301.8 -461.9,592.3 -701.6,863.5 -420.2,475.4 -874.4,916.8 -1350.1,1312.1 -883.9,733.6 -1737.4,1225 -2302.6,1530.7 -577.9,312.5 -1065.3,545.2 -1421.2,715.1 l -647.2,309.4 -10.5,-28.8 647.2,-309.4 c 355.7,-169.8 842.8,-402.3 1420.1,-714.4 m 116.5,2506.7 c 427.7,-58.9 1074,-147.8 1818.5,-328.2 465.3,-112.9 884.7,-244 1282,-400.8 524.7,-207.4 1000,-455.2 1452.9,-757.6 264.6,-176.8 523.6,-374.8 770,-588.3 270.4,-234.6 535,-496.3 786.6,-778 272.5,-305.2 539.5,-644.6 793.4,-1009 271.5,-389.6 537.5,-821 790.4,-1282.1 267.1,-487.3 528.7,-1024 777.5,-1595.3 128.6,-295.3 256.8,-606.8 381.1,-926 126.4,-324.9 252.4,-666.89 374.5,-1016.5 123.9,-355 247.4,-728.33 367,-1109.6 121,-385.87 241.6,-791.14 358.4,-1204.59 117.8,-416.79 235.3,-854.32 349.2,-1300.37 114.3,-447.94 228.4,-917.59 339,-1395.88 110.7,-479.11 221.2,-980.38 328.1,-1489.86 106.9,-508.9 213.4,-1040.8 316.8,-1581.1 102.8,-537.501 205.3,-1098.7 304.7,-1667.7 76,-435.199 151.8,-885 226.4,-1341.8 h 27.6 c -74.8,458.8 -151,910.8 -227.4,1347.902 -99.4,569.199 -202,1130.5 -304.8,1668.298 -103.3,540.5 -209.9,1072.6 -316.8,1581.7 -107.1,509.7 -217.5,1011.21 -328.3,1490.54 -110.7,478.56 -224.8,948.48 -339.2,1396.66 -114,446.33 -231.5,884.13 -349.4,1301.24 -116.9,413.75 -237.6,819.34 -358.7,1205.48 -119.8,381.65 -243.3,755.34 -367.4,1110.65 -122.1,350.01 -248.3,692.43 -374.9,1017.63 -124.5,319.6 -252.8,631.5 -381.6,927.2 -249.2,572.2 -511.2,1109.9 -778.8,1598 -253.5,462.1 -520,894.4 -792.1,1285 -254.7,365.3 -522.4,705.8 -795.7,1011.8 -252.4,282.6 -517.9,545.2 -789.2,780.5 -247.2,214.3 -507.2,413 -772.7,590.4 -454.5,303.5 -931.3,552.1 -1457.7,760.1 -398.4,157.3 -818.9,288.8 -1285.3,401.9 -745.7,180.6 -1392.7,269.7 -1820.8,328.6 l -33.6,4.6 c -423.8,58.3 -671.5,88.8 -674,89.1 l -2.9,-31 c 2.5,-0.3 250.1,-30.8 673.7,-89 l 33.5,-4.6 m 1669.4,2302 7.9,1.3 c 510.7,86.9 1282.6,218.4 2159.5,240.6 536.8,13.4 1017.3,-20.9 1468.7,-104.8 585.3,-109.1 1133,-308.8 1627.7,-593.6 292.2,-168.5 576.7,-372.3 845.4,-605.9 294.1,-255.8 580.3,-556.7 850.6,-894.3 291.8,-364.7 575.7,-785.6 843.8,-1250.8 140.9,-244.6 280.8,-507.3 415.8,-780.7 138.9,-281.3 276.8,-582.5 410,-895.4 136.4,-320.8 271.9,-663.3 402.7,-1018 133.6,-362.6 266.3,-748.8 394.3,-1147.9 130.5,-406.9 260,-838.9 384.9,-1284.3 127,-452.7 252.9,-932.6 374.5,-1426.2 123,-499.9 245.2,-1029.01 363.1,-1572.5 119,-548.64 237.1,-1127.96 351.1,-1721.87 114.5,-597.01 228.3,-1227.07 338.3,-1872.7 110.3,-647.57 219.6,-1328.35 325.1,-2023.38 105.5,-695.35 210.2,-1426.15 311.3,-2171.85 100.8,-743.202 200.8,-1522.498 297.4,-2316.3 25.4,-209.4 50.9,-421.8 76.2,-636.1 h 27.4 c -25.5,215.7 -51.1,429.6 -76.7,640.4 -96.6,793.9 -196.6,1573.4 -297.4,2316.8 -101.1,745.9 -205.9,1476.8 -311.5,2172.41 -105.4,695.24 -214.8,1376.2 -325.1,2023.99 -110,645.87 -223.9,1276.18 -338.5,1873.43 -114,594.18 -232.2,1173.77 -351.2,1722.72 -118,543.77 -240.2,1073.15 -363.4,1573.45 -121.6,493.9 -247.7,974.1 -374.7,1427.3 -125,445.7 -254.6,878.2 -385.3,1285.5 -128.2,399.6 -261,786.2 -394.8,1149.2 -130.9,355.2 -266.6,698.2 -403.3,1019.6 -133.4,313.4 -271.6,615.2 -410.7,897 -135.3,274.1 -275.5,537.4 -416.8,782.6 -268.9,466.6 -553.7,888.8 -846.5,1254.7 -271.4,339 -558.8,641.1 -854.2,898.1 -270,234.7 -555.9,439.5 -849.6,608.8 -497.2,286.2 -1047.5,487 -1635.5,596.5 -453.1,84.2 -935.2,118.4 -1473.7,105.2 -878.7,-22.2 -1651.5,-153.8 -2162.9,-240.9 l -7.9,-1.3 c -501,-85.4 -797.1,-143 -800,-143.5 l 4.6,-30.8 c 2.9,0.6 298.7,58.1 799.4,143.5 M -7224.9,-1782.3 c 88.18,1075.101 180.12,2126.101 273.23,3123.9 93.34,1000.1 190.69,1976.88 289.33,2903.14 98.44,923.91 201,1823.99 304.83,2675.18 103.46,847.76 211.17,1671.52 320.15,2448.44 108.25,771.54 221.02,1520.14 335.13,2224.84 112.98,697.6 230.64,1372.7 349.67,2006.5 117.44,625.2 239.78,1229.1 363.61,1794.9 121.76,556.1 248.54,1091.7 376.86,1591.8 125.89,490.6 256.84,961.1 389.2,1398.4 129.49,427.8 264.24,836.9 400.49,1215.8 132.87,369.3 271.03,720.9 410.65,1044.9 135.72,314.8 276.86,613 419.5,886.4 138.06,264.4 281.69,513.6 426.9,740.6 139.94,218.6 285.54,423.1 432.75,607.8 141.31,177.3 288.35,341.5 436.96,488.1 277.59,273.6 573.62,498.3 879.917,667.9 276.481,152.8 571.387,266.3 876.5316,337.2 268.5194,62.2 554.6994,93.8 850.8004,93.8 h 8.477 c 488.624,-1.3 1015.424,-85.3 1610.534,-256.5 968.73,-279.6 1847.56,-696.4 2429.1,-972.2 l 13.3,-6.3 c 540.13,-256.3 875.21,-424 914.04,-443.5 18.16,-32.5 146.62,-261 373.36,-643 345.92,-582.8 688.02,-1124.7 1045.88,-1656.8 508.67,-756.1 1035.37,-1467.9 1565.45,-2115.4 301.41,-368.1 610.08,-722.9 917.42,-1054.5 319.13,-344.4 645.33,-672.8 969.43,-976.3 327.1,-306.1 660.6,-594.8 991.2,-857.9 325.4,-258.9 656.1,-499.6 982.9,-715.2 314.4,-207.4 633,-396.8 946.8,-563 295.2,-156.3 593.4,-295.8 886.3,-414.6 269.3,-109.2 540.7,-203.6 806.6,-280.5 238.8,-69.1 478.8,-125.7 713.3,-168.3 204.8,-37.3 410.7,-64.8 611.8,-81.9 169.9,-14.3 340.6,-21.6 507.1,-21.6 166.6,0 337.3,7.3 507.2,21.6 201.1,17.1 407,44.6 611.7,81.9 234.5,42.6 474.5,99.2 713.4,168.3 265.9,76.9 537.3,171.3 806.6,280.5 292.9,118.8 591.1,258.3 886.3,414.6 313.8,166.1 632.3,355.5 946.8,563 326.8,215.6 657.5,456.3 982.9,715.2 330.7,263.2 664.2,551.8 991.2,857.9 324.1,303.5 650.3,631.9 969.4,976.3 307.4,331.7 616.1,686.5 917.4,1054.5 530.1,647.5 1056.8,1359.3 1565.5,2115.4 357.8,532.1 699.9,1074 1045.9,1656.8 226.7,382 355.1,610.5 373.3,643 38.8,19.4 373.8,187.2 914.1,443.5 l 13.4,6.4 c 581.5,275.7 1460.3,692.5 2429,972.1 595.1,171.2 1121.9,255.2 1610.5,256.5 298.2,-0.7 588.2,-30.9 859.3,-93.8 305.1,-70.9 600,-184.4 876.5,-337.2 306.3,-169.6 602.3,-394.3 879.9,-667.9 148.6,-146.6 295.7,-310.8 437,-488.1 147.2,-184.7 292.8,-389.2 432.7,-607.8 145.3,-227.1 288.9,-476.3 426.9,-740.6 142.8,-273.6 283.9,-571.8 419.5,-886.4 139.7,-324 277.8,-675.6 410.7,-1044.9 136.2,-378.9 271,-788 400.5,-1215.8 132.3,-437.3 263.3,-907.8 389.2,-1398.4 128.3,-500.1 255.1,-1035.7 376.8,-1591.8 123.9,-565.8 246.2,-1169.7 363.6,-1794.9 119.1,-633.8 236.7,-1308.9 349.7,-2006.5 114,-704.1 226.8,-1452.7 335.1,-2224.84 109,-776.92 216.7,-1600.68 320.2,-2448.44 103.9,-852.04 206.5,-1752.12 304.8,-2675.18 98.5,-924.92 195.9,-1901.64 289.4,-2903.14 93.1,-997.799 185,-2048.799 273.2,-3123.9 h 27.3 c -88.3,1076.3 -180.3,2128.402 -273.5,3127.2 -93.5,1001.7 -190.9,1978.54 -289.4,2903.61 -98.3,923.25 -200.9,1823.51 -304.9,2675.74 -103.5,847.93 -211.2,1671.91 -320.2,2449.04 -108.4,772.41 -221.2,1521.21 -335.2,2225.61 -113.1,697.9 -230.8,1373.3 -349.9,2007.4 -117.5,625.5 -239.9,1229.8 -363.8,1795.9 -121.9,556.5 -248.7,1092.5 -377.1,1593 -126.1,491.1 -257.1,962 -389.6,1399.8 -129.7,428.4 -264.6,838 -401.1,1217.4 -133.1,370.1 -271.5,722.3 -411.4,1046.9 -136,315.4 -277.4,614.3 -420.5,888.6 -138.5,265.2 -282.6,515.2 -428.3,743 -140.5,219.5 -286.8,424.9 -434.6,610.4 -142.1,178.2 -289.9,343.3 -439.4,490.7 -279.3,275.4 -577.4,501.6 -885.8,672.3 -278.5,154 -575.6,268.3 -882.9,339.8 -272.9,63.2 -565.2,94.8 -864.7,94.4 -490.9,-1.3 -1019.9,-85.6 -1617.2,-257.5 -970.5,-280.1 -1850.4,-697.4 -2432.7,-973.5 l -13.4,-6.4 c -572.6,-271.7 -915,-444 -918.4,-445.7 l -3.7,-1.9 -2.3,-3.9 c -1.2,-2.4 -131.2,-235.4 -375.1,-646.3 -345.6,-582.2 -687.4,-1123.7 -1044.9,-1655.2 -508.2,-755.4 -1034.3,-1466.4 -1563.8,-2113.2 -300.9,-367.5 -609.2,-721.9 -916.2,-1053.1 -318.7,-343.8 -644.4,-671.8 -968,-974.8 -326.5,-305.6 -659.4,-593.8 -989.5,-856.5 -324.8,-258.4 -654.9,-498.6 -981,-713.8 -313.8,-207 -631.6,-396 -944.6,-561.7 -294.4,-155.9 -591.8,-295 -883.9,-413.5 -268.6,-108.9 -539.2,-203 -804.3,-279.7 -238,-68.8 -477.2,-125.2 -710.9,-167.7 -204,-37.2 -409.1,-64.6 -609.5,-81.6 -169.3,-14.3 -339.2,-21.6 -505.2,-21.6 -165.9,0 -335.8,7.3 -505.1,21.6 -200.4,17 -405.5,44.4 -609.5,81.6 -233.7,42.5 -472.9,98.9 -710.9,167.7 -265.1,76.7 -535.7,170.8 -804.3,279.7 -292.1,118.5 -589.5,257.6 -883.9,413.5 -313.1,165.8 -630.9,354.8 -944.6,561.7 -326.2,215.2 -656.2,455.4 -981,713.8 -330.1,262.7 -663,550.9 -989.5,856.5 -323.6,303 -649.3,630.9 -968,974.8 -306.93,331.1 -615.2,685.5 -916.22,1053.1 -529.5,646.8 -1055.62,1357.8 -1563.74,2113.2 -357.53,531.5 -699.33,1073 -1044.93,1655.2 -243.88,410.9 -373.88,643.9 -375.16,646.3 l -2.22,3.9 -3.77,1.9 c -3.39,1.7 -345.75,174 -918.33,445.7 l -13.31,6.3 c -582.27,276.2 -1462.21,693.4 -2432.88,973.6 -597.27,171.9 -1126.24,256.2 -1617.088,257.5 -301.074,-1.4 -591.886,-31.2 -864.7301,-94.4 -307.3669,-71.5 -604.4339,-185.8 -882.9569,-339.8 -308.425,-170.7 -606.445,-396.9 -885.825,-672.3 -149.45,-147.4 -297.25,-312.5 -439.31,-490.7 -147.88,-185.5 -294.1,-390.9 -434.61,-610.4 -145.71,-227.7 -289.8,-477.7 -428.3,-743 -143.01,-274.1 -284.51,-573.1 -420.54,-888.6 -139.89,-324.6 -278.32,-676.8 -411.43,-1046.9 -136.43,-379.4 -271.37,-789 -401.05,-1217.4 -132.48,-437.8 -263.55,-908.7 -389.59,-1399.8 -128.4,-500.5 -255.27,-1036.5 -377.12,-1593 -123.92,-566.1 -246.32,-1170.4 -363.83,-1795.9 -119.08,-634.1 -236.79,-1309.5 -349.83,-2007.4 -114.17,-705 -226.94,-1453.8 -335.23,-2225.61 -109.01,-777.13 -216.76,-1601.11 -320.24,-2449.04 -103.85,-851.38 -206.44,-1751.61 -304.89,-2675.74 C -6788,3322.1 -6885.35,2345.2 -6978.69,1344.9 -7071.9,346.102 -7163.94,-706.098 -7252.22,-1782.3 h 27.32" />
</svg>
