<svg height="171.42857" width="200" version="1.1" id="Icons" viewBox="0 0 8 6.8571429" xml:space="preserve"
   sodipodi:docname="application-bold.svg" inkscape:version="1.4.2 (ebf0e940d0, 2025-05-08)"
   xmlns:inkscape="http://www.inkscape.org/namespaces/inkscape"
   xmlns:sodipodi="http://sodipodi.sourceforge.net/DTD/sodipodi-0.dtd" xmlns="http://www.w3.org/2000/svg"
   xmlns:svg="http://www.w3.org/2000/svg">
   <defs id="defs1" />
   <sodipodi:namedview id="namedview1" pagecolor="#ffffff" bordercolor="#000000" borderopacity="0.25"
      inkscape:showpageshadow="2" inkscape:pageopacity="0.0" inkscape:pagecheckerboard="0" inkscape:deskcolor="#d1d1d1"
      inkscape:zoom="1.25125" inkscape:cx="349.25075" inkscape:cy="300.0999" inkscape:window-width="2194"
      inkscape:window-height="1210" inkscape:window-x="0" inkscape:window-y="0" inkscape:window-maximized="1"
      inkscape:current-layer="Icons" />
   <path
      d="M 7.1428571,0 H 0.8571429 C 0.3714286,0 0,0.3714286 0,0.8571429 V 6 C 0,6.485714 0.3714286,6.857143 0.8571429,6.857143 H 7.1428571 C 7.6285714,6.857143 8,6.485714 8,6 V 0.8571429 C 8,0.3714286 7.6285714,0 7.1428571,0 Z M 2.0285714,1.0285714 C 2.0571429,1 2.0571429,0.9714286 2.0857143,0.9428571 2.1142857,0.9142857 2.1428571,0.8857143 2.1714286,0.8857143 2.2857143,0.8285714 2.4,0.8571429 2.4857143,0.9428571 2.5142857,0.9714286 2.5428571,1 2.5428571,1.0285714 c 0.028571,0.028571 0.028571,0.085714 0.028571,0.1142857 0,0.085714 -0.028571,0.1428572 -0.085714,0.2 -0.057143,0.057143 -0.1142857,0.085714 -0.2,0.085714 C 2.2,1.4285714 2.1428571,1.4 2.0857143,1.3428571 2.0285714,1.2857143 2,1.2285714 2,1.1428571 2,1.1142857 2,1.0571429 2.0285714,1.0285714 Z M 1.1428571,1.1428571 c 0,-0.085714 0.028571,-0.1428571 0.085714,-0.2 0,0 0.028571,-0.028571 0.028571,-0.028571 0.028571,0 0.028571,-0.028571 0.057143,-0.028571 0.028571,-0.028571 0.028571,-0.028571 0.057143,-0.028571 0.028571,0 0.085714,0 0.1142857,0 0.028571,0 0.028571,0 0.057143,0.028571 0.028571,0 0.028571,0.028571 0.057143,0.028571 0,0 0.028571,0.028571 0.028571,0.028571 0.028572,0.028571 0.057143,0.057143 0.057143,0.085714 0.028571,0.028571 0.028571,0.085714 0.028571,0.1142857 0,0.028571 0,0.085714 -0.028571,0.1142858 0,0.028571 -0.028571,0.057143 -0.057143,0.085714 -0.057143,0.057143 -0.1142857,0.085714 -0.2,0.085714 -0.085714,0 -0.1428571,-0.028571 -0.2,-0.085714 -0.057143,-0.057143 -0.085714,-0.1142857 -0.085714,-0.1999995 z m 1.8,0.2 c -0.028571,-0.028571 -0.057143,-0.057143 -0.057143,-0.085714 -0.028571,-0.028571 -0.028571,-0.085714 -0.028571,-0.1142858 0,-0.028571 0,-0.085714 0.028571,-0.1142857 C 2.9142857,1 2.9142857,0.9714286 2.9428571,0.9428571 c 0.1142858,-0.1142857 0.2857143,-0.1142857 0.4,0 C 3.3714286,0.9714286 3.4,1 3.4,1.0285714 c 0.028571,0.028571 0.028571,0.085714 0.028571,0.1142857 0,0.028571 0,0.085714 -0.028571,0.1142858 -0.028571,0.028571 -0.028571,0.057143 -0.057143,0.085714 -0.057143,0.057143 -0.1142857,0.085714 -0.2,0.085714 -0.028571,0 -0.085714,0 -0.1142857,-0.028571 C 3,1.4 2.9714286,1.3714286 2.9428571,1.3428571 Z"
      id="path1" />
</svg>