<svg width="199.99927" height="200" viewBox="0 0 4.9999817 5" version="1.1" id="svg1" sodipodi:docname="github-bold.svg"
   inkscape:version="1.4.2 (ebf0e940d0, 2025-05-08)" xmlns:inkscape="http://www.inkscape.org/namespaces/inkscape"
   xmlns:sodipodi="http://sodipodi.sourceforge.net/DTD/sodipodi-0.dtd" xmlns="http://www.w3.org/2000/svg"
   xmlns:svg="http://www.w3.org/2000/svg" xmlns:rdf="http://www.w3.org/1999/02/22-rdf-syntax-ns#"
   xmlns:cc="http://creativecommons.org/ns#" xmlns:dc="http://purl.org/dc/elements/1.1/">
   <path
      d="m 2.4999907,0 c 1.3807449,0 2.4999908,1.1474957 2.4999908,2.5632405 0,1.1322458 -0.7154974,2.0927422 -1.7082437,2.431991 -0.1267495,0.02525 -0.1717494,-0.05475 -0.1717494,-0.1229996 0,-0.0845 0.003,-0.3604986 0.003,-0.7034974 0,-0.2389991 -0.08,-0.3949985 -0.1697493,-0.4744982 0.5567479,-0.0635 1.1417457,-0.280249 1.1417457,-1.2647453 0,-0.279999 -0.097,-0.5084981 -0.257499,-0.6879975 0.026,-0.06475 0.1117496,-0.3254987 -0.0245,-0.6784974 0,0 -0.2094993,-0.0687498 -0.6867475,0.262749 -0.1997492,-0.05675 -0.4137485,-0.08525 -0.6262477,-0.08625 -0.2124992,10e-4 -0.4262484,0.0295 -0.6257476,0.08625 C 1.3964948,0.99424631 1.1864956,1.0629961 1.1864956,1.0629961 1.0507461,1.4159948 1.1364958,1.6767438 1.1622457,1.7414935 1.0024963,1.9209929 0.90474665,2.149492 0.90474665,2.429491 c 0,0.9819964 0.58374785,1.2019955 1.13899575,1.2667453 -0.0715,0.064 -0.1362495,0.1769993 -0.1587494,0.3427487 -0.1424995,0.0655 -0.5044981,0.1787494 -0.7274973,-0.2129992 0,0 -0.1322495,-0.2462491 -0.38324857,-0.264249 0,0 -0.2437491,-0.00325 -0.0169999,0.1557494 0,0 0.1637494,0.07875 0.27749897,0.3749986 0,0 0.1467494,0.4574983 0.8422468,0.3024989 0.00125,0.2142492 0.0035,0.4162485 0.0035,0.4772482 0,0.06775 -0.046,0.1469995 -0.1707493,0.1232496 C 0.71624735,4.6567327 0,3.6957363 0,2.5632405 0,1.1474957 1.1194959,0 2.4999907,0"
      id="github-[#142]" inkscape:label="path1" />
</svg>