<?xml version="1.0" encoding="UTF-8" standalone="no"?>
<!-- Uploaded to: SVG Repo, www.svgrepo.com, Generator: SVG Repo Mixer Tools -->

<svg
   fill="#000000"
   version="1.1"
   width="141.69331"
   height="200"
   viewBox="0 0 90.683721 128"
   enable-background="new 0 0 512 512"
   xml:space="preserve"
   id="svg1"
   sodipodi:docname="html5-bold.svg"
   inkscape:version="1.4.2 (ebf0e940d0, 2025-05-08)"
   xmlns:inkscape="http://www.inkscape.org/namespaces/inkscape"
   xmlns:sodipodi="http://sodipodi.sourceforge.net/DTD/sodipodi-0.dtd"
   xmlns="http://www.w3.org/2000/svg"
   xmlns:svg="http://www.w3.org/2000/svg"><defs
   id="defs1" /><sodipodi:namedview
   id="namedview1"
   pagecolor="#ffffff"
   bordercolor="#000000"
   borderopacity="0.25"
   inkscape:showpageshadow="2"
   inkscape:pageopacity="0.0"
   inkscape:pagecheckerboard="0"
   inkscape:deskcolor="#d1d1d1"
   inkscape:zoom="1.25125"
   inkscape:cx="306.89311"
   inkscape:cy="367.23277"
   inkscape:window-width="2194"
   inkscape:window-height="1210"
   inkscape:window-x="0"
   inkscape:window-y="0"
   inkscape:window-maximized="1"
   inkscape:current-layer="svg1" />

<path
   display="inline"
   d="m 8.437011,0 h 5.769291 v 5.700156 h 5.277579 V 0 H 25.25367 V 17.26103 H 19.484382 V 11.480718 H 14.206803 V 17.26103 H 8.437512 V 0 Z M 32.84027,5.724203 H 27.76158 V 0 H 43.691264 V 5.724203 H 38.61006 V 17.26103 H 32.84077 V 5.724203 Z M 46.219204,0 h 6.01678 L 55.935974,6.06512 59.632954,0 h 6.01753 v 17.26103 h -5.74574 V 8.705788 l -3.96902,6.13701 h -0.099 l -3.97172,-6.13701 v 8.555242 h -5.6458 V 0 Z m 22.30315,0 h 5.77079 v 11.555865 h 8.11363 V 17.26103 H 68.522354 Z M 0,25.15548 8.252651,117.71988 45.286134,128 82.422304,117.7051 90.683724,25.15523 H 0 Z m 73.469284,21.966489 -0.51676,5.755514 -0.22694,2.551994 h -0.0373 -27.34626 -0.0396 -16.020354 l 1.03753,11.6245 h 14.982824 0.0396 23.29058 3.05948 l -0.27704,3.048967 -2.66772,29.888496 -0.17083,1.91675 -23.23447,6.43985 v 0.002 l -0.0521,0.0148 -23.255262,-6.45613 -1.590863,-17.82514 h 5.252781 6.14377 l 0.80833,9.05422 12.643254,3.41469 0.0105,-0.003 v -0.001 l 12.66253,-3.41669 1.31683,-14.724066 h -13.93978 -0.0396 -25.365647 L 17.146556,47.121969 16.874774,44.07676 h 28.42764 0.0396 28.39907 z"
   id="path1"
   style="fill:#000000;fill-opacity:1;stroke:none;stroke-width:0.25049">

</path>

</svg>
