<svg width="200" height="200" viewBox="0 0 6 6" fill="none" version="1.1" id="svg3" sodipodi:docname="info-outline.svg"
   inkscape:version="1.4.2 (ebf0e940d0, 2025-05-08)" xmlns:inkscape="http://www.inkscape.org/namespaces/inkscape"
   xmlns:sodipodi="http://sodipodi.sourceforge.net/DTD/sodipodi-0.dtd" xmlns="http://www.w3.org/2000/svg"
   xmlns:svg="http://www.w3.org/2000/svg">
   <path id="path1"
      d="M 2.9999999,0 C 1.343149,0 0,1.343149 0,2.9999999 0,4.656862 1.343149,6 2.9999999,6 4.656862,6 6,4.656862 6,2.9999999 6,1.343149 4.656862,0 2.9999999,0 Z m 0,0.4186039 c 1.4256532,0 2.5813962,1.1557345 2.5813962,2.581396 0,1.4256532 -1.155743,2.5813962 -2.5813962,2.5813962 -1.4256615,0 -2.581396,-1.155743 -2.581396,-2.5813962 0,-1.4256615 1.1557345,-2.581396 2.581396,-2.581396 z m 0,1.1860552 c -0.1541299,0 -0.2790748,0.124934 -0.2790748,0.2790584 0,0.1541243 0.1249449,0.2790747 0.2790748,0.2790747 0.15413,0 0.2790749,-0.1249504 0.2790749,-0.2790747 0,-0.1541244 -0.1249449,-0.2790584 -0.2790749,-0.2790584 z m 0,0.9069641 c -0.1155905,0 -0.2093019,0.093711 -0.2093019,0.2093019 v 1.6744155 c 0,0.1155905 0.093711,0.209302 0.2093019,0.209302 0.1155905,0 0.209302,-0.093712 0.209302,-0.209302 V 2.7209251 c 0,-0.1155905 -0.093712,-0.2093019 -0.209302,-0.2093019 z" />
</svg>