<svg fill="#000000" version="1.1" width="200.00011" height="200.00002" viewBox="0 0 128.00007 128.00001"
   enable-background="new 0 0 512 512" xml:space="preserve" id="svg1" sodipodi:docname="js-bold.svg"
   inkscape:version="1.4.2 (ebf0e940d0, 2025-05-08)" xmlns:inkscape="http://www.inkscape.org/namespaces/inkscape"
   xmlns:sodipodi="http://sodipodi.sourceforge.net/DTD/sodipodi-0.dtd" xmlns="http://www.w3.org/2000/svg"
   xmlns:svg="http://www.w3.org/2000/svg">
   <path display="inline" fill-rule="evenodd" clip-rule="evenodd"
      d="m 0.12735088,0 c -0.14277883,0.0207906 -0.13225828,0.19287667 -0.12198822,0.36521322 0,42.49999778 0,84.99348278 0,127.49247678 42.42384934,0.28431 85.36871534,0.0406 127.99470734,0.12174 0,-42.660562 0,-85.319119 0,-127.97943 C 85.377334,0 42.750339,0 0.12735088,0 Z M 64.975242,113.13769 c -2.961284,2.98559 -7.63441,4.74377 -13.383387,4.74377 -9.429164,0 -14.664388,-4.59397 -18.006164,-10.94913 3.216782,-2.05401 6.504202,-4.03839 9.855247,-5.96039 1.366668,3.82296 5.983184,8.12086 11.192607,5.47494 3.302199,-1.67803 2.920955,-6.76571 2.920955,-12.287498 0,-11.465641 0,-24.692722 0,-35.036422 -0.01052,-0.172336 -0.02079,-0.344422 0.120735,-0.365213 3.934434,0 7.868617,0 11.802049,0 0,9.214996 0,19.638852 0,29.439742 0,10.670338 0.762489,19.635091 -4.502042,24.940201 z m 52.803868,-10.58316 c -0.66981,9.99051 -8.82799,15.29562 -19.831227,15.32693 -10.786565,0.0311 -17.690547,-4.76255 -21.90102,-12.16551 3.027162,-2.08332 6.45711,-3.76159 9.612522,-5.71666 2.524931,3.94796 6.897721,7.74262 13.383386,7.17701 4.040639,-0.35218 8.731049,-3.64587 6.083129,-8.637365 -1.28426,-2.419725 -4.38757,-3.648876 -7.178017,-4.865752 -8.855293,-3.863545 -19.244582,-7.407216 -18.250892,-21.289576 0.3324,-4.637557 2.46782,-7.896672 5.232469,-10.218957 2.833283,-2.379647 6.627943,-3.974511 11.68006,-4.135826 9.17517,-0.293824 14.2085,3.787396 17.6417,9.489532 -2.9217,2.227099 -6.14049,4.160124 -9.36854,6.082127 -1.05932,-3.255107 -6.173059,-6.427051 -10.463438,-4.50104 -1.95106,0.874959 -3.704234,3.446982 -2.676226,6.568828 0.91679,2.784188 4.656343,4.308164 7.664718,5.59693 9.105786,3.897612 19.281906,7.706801 18.371376,21.289329 z"
      id="path1">

   </path>

</svg>