<svg width="200.00002" height="200.00002" viewBox="0 0 6.0000005 6.0000005" fill="none" version="1.1" id="svg1"
   sodipodi:docname="magnifer-outline.svg" inkscape:version="1.4.2 (ebf0e940d0, 2025-05-08)"
   xmlns:inkscape="http://www.inkscape.org/namespaces/inkscape"
   xmlns:sodipodi="http://sodipodi.sourceforge.net/DTD/sodipodi-0.dtd" xmlns="http://www.w3.org/2000/svg"
   xmlns:svg="http://www.w3.org/2000/svg">
   <path fill-rule="evenodd" clip-rule="evenodd"
      d="m 2.8604684,0.4186051 c -1.3486034,0 -2.4418633,1.0932599 -2.4418633,2.4418633 0,1.3486063 1.0932599,2.4418633 2.4418633,2.4418633 1.3486063,0 2.4418633,-1.093257 2.4418633,-2.4418633 0,-1.3486034 -1.093257,-2.4418633 -2.4418633,-2.4418633 z M 0,2.8604684 C 0,1.280675 1.280675,0 2.8604684,0 c 1.5797879,0 2.8604685,1.280675 2.8604685,2.8604684 0,0.714559 -0.2620189,1.3679179 -0.6951915,1.8692673 l 0.9129499,0.9129778 c 0.08174,0.08174 0.08174,0.2142421 0,0.2959818 -0.08174,0.08174 -0.2142421,0.08174 -0.2959818,0 L 4.7297357,5.0257454 C 4.2283863,5.458918 3.5750274,5.7209369 2.8604684,5.7209369 1.280675,5.7209369 0,4.4402563 0,2.8604684 Z"
      fill="#1C274C" id="path1" />
</svg>