<svg width="200" height="200" viewBox="0 0 6 6" fill="none" version="1.1" id="svg1" sodipodi:docname="moon-outline.svg"
   inkscape:version="1.4.2 (ebf0e940d0, 2025-05-08)" xmlns:inkscape="http://www.inkscape.org/namespaces/inkscape"
   xmlns:sodipodi="http://sodipodi.sourceforge.net/DTD/sodipodi-0.dtd" xmlns="http://www.w3.org/2000/svg"
   xmlns:svg="http://www.w3.org/2000/svg">
   <path fill-rule="evenodd" clip-rule="evenodd"
      d="M 2.725786,0.4329963 C 1.4290381,0.5699191 0.4186047,1.6669619 0.4186047,3 c 0,1.4256558 1.1557311,2.5813953 2.5813953,2.5813953 1.3330326,0 2.4300837,-1.0104279 2.5669953,-2.3071813 -0.3702418,0.4700372 -0.9448744,0.7722976 -1.5902511,0.7722976 -1.1174233,0 -2.0232558,-0.9058325 -2.0232558,-2.0232558 0,-0.6453823 0.3022744,-1.2200093 0.7722976,-1.5902595 z M 0,3 C 0,1.343146 1.343146,0 3,0 3.1999814,0 3.3001116,0.1594214 3.3172465,0.2864009 3.3337674,0.4085526 3.288614,0.5639023 3.148186,0.6487451 2.682614,0.9300837 2.372093,1.4405079 2.372093,2.0232558 c 0,0.886214 0.7184372,1.6046512 1.6046512,1.6046512 0.5827535,0 1.0931721,-0.310521 1.3745023,-0.776093 C 5.4360837,2.711386 5.5914419,2.6662326 5.7135907,2.6827535 5.8405674,2.6998884 6,2.8000186 6,3 6,4.6568651 4.6568651,6 3,6 1.343146,6 0,4.6568651 0,3 Z"
      fill="#1c274c" id="path1" />
</svg>