<svg width="200" height="181.39525" viewBox="0 0 6 5.4418575" fill="none" version="1.1" id="svg1"
   sodipodi:docname="server-square-outline.svg" inkscape:version="1.4.2 (ebf0e940d0, 2025-05-08)"
   xmlns:inkscape="http://www.inkscape.org/namespaces/inkscape"
   xmlns:sodipodi="http://sodipodi.sourceforge.net/DTD/sodipodi-0.dtd" xmlns="http://www.w3.org/2000/svg"
   xmlns:svg="http://www.w3.org/2000/svg">
   <path fill-rule="evenodd" clip-rule="evenodd"
      d="M 2.426114,1.2710014e-7 H 3.5738771 C 4.0867512,-5.4728999e-6 4.4929649,-8.2728999e-6 4.810881,0.04273713 c 0.3271812,0.043987 0.5920183,0.1366715 0.800874,0.3455161 0.2088278,0.2088473 0.3015068,0.4736704 0.345516,0.80085717 0.042726,0.3179189 0.042726,0.7241438 0.042726,1.2370095 v 0.5738787 c 0,0.1155907 -0.093712,0.2093022 -0.2093022,0.2093022 -0.1155906,0 -0.2093022,-0.093712 -0.2093022,-0.2093022 V 2.9302309 H 0.41860453 v 0.069767 c 0,0.53213 4.437e-4,0.9101856 0.039003,1.1969854 0.037747,0.280744 0.1085385,0.4425207 0.2266435,0.5606229 0.1181051,0.1181023 0.2798678,0.1889022 0.56063687,0.2266325 0.2867887,0.038567 0.6648359,0.039014 1.1969714,0.039014 h 0.8372088 c 0.1155907,0 0.2093023,0.093712 0.2093023,0.2093022 0,0.1155906 -0.093712,0.2093022 -0.2093023,0.2093022 H 2.4261168 c -0.5128629,0 -0.9190878,0 -1.2370067,-0.042726 C 0.86192333,5.3551226 0.59710023,5.2624435 0.38825293,5.0536158 0.17940833,4.8447601 0.08672373,4.579923 0.04273683,4.2527418 -8.2728999e-6,3.9348257 -5.4728999e-6,3.528612 1.2710014e-7,3.0157379 V 2.4261196 C -5.4728999e-6,1.9132511 -8.2728999e-6,1.507029 0.04273683,1.1891101 0.08672373,0.86192333 0.17940833,0.59710023 0.38825293,0.38825293 0.59710023,0.17940833 0.86192333,0.08672373 1.1891101,0.04273683 1.507029,-8.2728999e-6 1.9132511,-5.4728999e-6 2.426114,1.2710014e-7 Z M 0.41860453,2.5116265 H 5.5813922 v -0.069767 c 0,-0.5321355 -4.465e-4,-0.9101827 -0.039014,-1.1969714 C 5.5046481,0.96411863 5.4338481,0.80235593 5.3157458,0.68425083 5.1976436,0.56614583 5.0358669,0.49535423 4.7551229,0.45760733 4.4683231,0.41904823 4.0902675,0.41860453 3.5581376,0.41860453 H 2.4418591 c -0.5321355,0 -0.9101827,4.437e-4 -1.1969714,0.039003 -0.28076907,0.0377467 -0.44253177,0.1085383 -0.56063687,0.2266433 -0.118105,0.1181051 -0.1888966,0.2798678 -0.2266435,0.56063687 -0.0385591,0.2867887 -0.0390028,0.6648359 -0.0390028,1.1969714 z M 1.3255807,0.97674373 c 0.1155934,0 0.2093022,0.093709 0.2093022,0.20930217 v 0.5581392 c 0,0.1155934 -0.093709,0.2093022 -0.2093022,0.2093022 -0.1155934,0 -0.2093022,-0.093709 -0.2093022,-0.2093022 V 1.1860459 c 0,-0.1155934 0.093709,-0.20930217 0.2093022,-0.20930217 z m 0.8372088,0 c 0.1155934,0 0.2093022,0.093709 0.2093022,0.20930217 v 0.5581392 c 0,0.1155934 -0.093709,0.2093022 -0.2093022,0.2093022 -0.1155934,0 -0.2093022,-0.093709 -0.2093022,-0.2093022 V 1.1860459 c 0,-0.1155934 0.093709,-0.20930217 0.2093022,-0.20930217 z m 1.046511,0.48837177 c 0,-0.1155934 0.093712,-0.2093022 0.2093022,-0.2093022 H 4.674416 c 0.1155906,0 0.2093022,0.093709 0.2093022,0.2093022 0,0.1155934 -0.093712,0.2093022 -0.2093022,0.2093022 H 3.4186027 c -0.1155906,0 -0.2093022,-0.093709 -0.2093022,-0.2093022 z M 3.8172816,4.0474582 C 3.9258397,3.6295515 4.3542952,3.3488353 4.8152903,3.3488353 c 0.3564277,0 0.6809857,0.161972 0.8667902,0.4227347 0.067088,0.09413 0.045153,0.2248185 -0.049005,0.2919068 -0.09413,0.067088 -0.2248181,0.045153 -0.2919064,-0.049005 C 5.2407877,3.8735978 5.0486762,3.7674398 4.8152903,3.7674398 c -0.2697208,0 -0.4707067,0.1344836 -0.5579159,0.3013672 0.024112,0.01214 0.046242,0.029135 0.064856,0.050902 0.075181,0.087823 0.064912,0.2199348 -0.022884,0.2951161 L 4.136314,4.5543602 c -0.078335,0.06706 -0.1938418,0.06706 -0.2722045,0 L 3.7011049,4.4148254 C 3.6132817,4.3396441 3.6030399,4.2075325 3.6781933,4.1197093 3.7149189,4.0768163 3.7652072,4.0524256 3.8172816,4.0474582 Z M 1.3255807,3.4883702 c 0.1155934,0 0.2093022,0.093711 0.2093022,0.2093022 v 0.5581392 c 0,0.1155906 -0.093709,0.2093022 -0.2093022,0.2093022 -0.1155934,0 -0.2093022,-0.093712 -0.2093022,-0.2093022 V 3.6976724 c 0,-0.1155907 0.093709,-0.2093022 0.2093022,-0.2093022 z m 0.8372088,0 c 0.1155934,0 0.2093022,0.093711 0.2093022,0.2093022 v 0.5581392 c 0,0.1155906 -0.093709,0.2093022 -0.2093022,0.2093022 -0.1155934,0 -0.2093022,-0.093712 -0.2093022,-0.2093022 V 3.6976724 c 0,-0.1155907 0.093709,-0.2093022 0.2093022,-0.2093022 z m 3.3287981,0.7479623 c 0.078335,-0.06706 0.1938417,-0.06706 0.2722045,0 l 0.1630045,0.1395348 c 0.087823,0.075181 0.098065,0.2072929 0.022912,0.2951161 -0.036726,0.042893 -0.087014,0.067284 -0.1390886,0.072251 -0.1085581,0.4179068 -0.5370137,0.6986229 -0.9980088,0.6986229 -0.3564277,0 -0.6809856,-0.161972 -0.8667902,-0.4227346 -0.067088,-0.09413 -0.045153,-0.2248185 0.049005,-0.2919069 0.09413,-0.067088 0.2248184,-0.045153 0.2919068,0.049005 0.1003813,0.1408743 0.2924928,0.2470324 0.5258787,0.2470324 0.2697208,0 0.4707068,-0.1344837 0.557916,-0.3013673 -0.024112,-0.01214 -0.046242,-0.029135 -0.064856,-0.050903 -0.075181,-0.087823 -0.064912,-0.2199347 0.022884,-0.2951161 z"
      fill="#1C274C" id="path1" />
</svg>