<svg width="200" height="200" viewBox="0 0 6 6" fill="none" version="1.1" id="svg1" sodipodi:docname="sun-outline.svg"
   inkscape:version="1.4.2 (ebf0e940d0, 2025-05-08)" xmlns:inkscape="http://www.inkscape.org/namespaces/inkscape"
   xmlns:sodipodi="http://sodipodi.sourceforge.net/DTD/sodipodi-0.dtd" xmlns="http://www.w3.org/2000/svg"
   xmlns:svg="http://www.w3.org/2000/svg">

   <path fill-rule="evenodd" clip-rule="evenodd"
      d="m 3,0 c 0.1155907,0 0.2093022,0.093709 0.2093022,0.2093023 v 0.5581396 c 0,0.1155934 -0.093711,0.2093023 -0.2093022,0.2093023 -0.1155907,0 -0.2093022,-0.093709 -0.2093022,-0.2093023 V 0.2093023 C 2.7906978,0.0937088 2.8844093,0 3,0 Z M 0.6749721,0.6882112 c 0.078,-0.085312 0.2103907,-0.091239 0.2957023,-0.013239 l 0.6200958,0.5669554 c 0.085312,0.078 0.091239,0.2103878 0.013239,0.2956995 -0.078,0.085312 -0.2103907,0.091239 -0.2957023,0.013239 L 0.6882112,0.9839135 c -0.085312,-0.078 -0.091239,-0.2103907 -0.0132391,-0.2957023 z m 4.6500698,0 c 0.078,0.085312 0.072056,0.2177023 -0.013255,0.2957023 L 4.6916932,1.5508661 c -0.085312,0.078 -0.2177025,0.072072 -0.2957025,-0.013239 -0.078,-0.085312 -0.072084,-0.2176995 0.013228,-0.2956995 L 5.0293395,0.6749721 c 0.085312,-0.078 0.2176745,-0.072073 0.2957024,0.0132391 z M 3,1.8139535 C 2.3449647,1.8139535 1.8139535,2.3449647 1.8139535,3 1.8139535,3.6550326 2.3449647,4.1860466 3,4.1860466 3.6550326,4.1860466 4.1860466,3.6550326 4.1860466,3 4.1860466,2.3449647 3.6550326,1.8139535 3,1.8139535 Z M 1.3953488,3 C 1.3953488,2.1137749 2.1137749,1.3953488 3,1.3953488 3.886214,1.3953488 4.6046512,2.1137749 4.6046512,3 4.6046512,3.886214 3.886214,4.6046512 3,4.6046512 2.1137749,4.6046512 1.3953488,3.886214 1.3953488,3 Z M 0,3 C 0,2.8844093 0.093709,2.7906978 0.2093023,2.7906978 h 0.5581396 c 0.1155934,0 0.2093023,0.093711 0.2093023,0.2093022 0,0.1155907 -0.093709,0.2093022 -0.2093023,0.2093022 H 0.2093023 C 0.0937088,3.2093022 0,3.1155907 0,3 Z m 5.0232559,0 c 0,-0.1155907 0.093712,-0.2093022 0.2093022,-0.2093022 H 5.7906978 C 5.9062885,2.7906978 6,2.8844093 6,3 6,3.1155907 5.9062885,3.2093022 5.7906978,3.2093022 H 5.2325581 C 5.1169674,3.2093022 5.0232559,3.1155907 5.0232559,3 Z M 4.4024652,4.4023814 c 0.08174,-0.08174 0.2142696,-0.08174 0.2960093,0 l 0.6200929,0.6201767 c 0.081739,0.08174 0.081712,0.2142698 -2.79e-5,0.2960093 -0.08174,0.081739 -0.2142696,0.081712 -0.2959814,-2.79e-5 L 4.4024652,4.6983627 c -0.08174,-0.081739 -0.08174,-0.2142419 0,-0.2959813 z m -2.8048829,2.79e-5 c 0.081737,0.081739 0.081737,0.2142699 0,0.2960093 L 0.9774251,5.3185674 c -0.081737,0.081739 -0.2142586,0.081739 -0.2959981,0 -0.081737,-0.08174 -0.081737,-0.2142696 0,-0.2959814 L 1.3015842,4.4024093 c 0.081737,-0.081739 0.2142586,-0.081739 0.2959981,0 z M 3,5.0232559 c 0.1155907,0 0.2093022,0.093712 0.2093022,0.2093022 V 5.7906978 C 3.2093022,5.9062885 3.1155907,6 3,6 2.8844093,6 2.7906978,5.9062885 2.7906978,5.7906978 V 5.2325581 C 2.7906978,5.1169674 2.8844088,5.0232559 3,5.0232559 Z"
      fill="#1C274C" id="path1" />
</svg>