<svg width="200.00002" height="200.00002" viewBox="0 0 6.0000005 6.0000005" fill="none" version="1.1" id="svg4"
   sodipodi:docname="widget-2-outline.svg" inkscape:version="1.4.2 (ebf0e940d0, 2025-05-08)"
   xmlns:inkscape="http://www.inkscape.org/namespaces/inkscape"
   xmlns:sodipodi="http://sodipodi.sourceforge.net/DTD/sodipodi-0.dtd" xmlns="http://www.w3.org/2000/svg"
   xmlns:svg="http://www.w3.org/2000/svg">

   <path id="path1"
      d="M 1.3902354,3.4770475e-7 C 0.62242425,3.4770475e-7 3.4770475e-7,0.62242425 3.4770475e-7,1.3902354 3.4770475e-7,2.1580496 0.62242425,2.7804876 1.3902354,2.7804876 c 0.7678142,0 1.3902522,-0.622438 1.3902522,-1.3902522 C 2.7804876,0.62242425 2.1580496,3.4770475e-7 1.3902354,3.4770475e-7 Z m 3.2043009,0 C 4.3315602,-8.3522953e-6 4.1122817,-2.7952295e-5 3.9381936,0.02337505 3.7544469,0.04808045 3.5885539,0.10242785 3.4552659,0.23573635 3.3219486,0.36904495 3.2676072,0.53493745 3.2429047,0.71868125 3.21949,0.89276355 3.2195129,1.1120566 3.2195129,1.3750239 v 0.03044 c 0,0.2629673 -2.29e-5,0.4822462 0.023392,0.6563255 0.024703,0.1837467 0.079044,0.349651 0.2123612,0.482945 0.133288,0.1333173 0.299181,0.1876587 0.4829277,0.2123612 0.1740881,0.023415 0.3933666,0.023392 0.6563427,0.023392 h 0.03044 c 0.2629762,0 0.4822546,2.29e-5 0.6563427,-0.023392 C 5.4650659,2.7323926 5.6309589,2.6780516 5.764247,2.5447344 5.8975643,2.4114404 5.9519229,2.2455361 5.9766254,2.0617894 6.0000404,1.8877072 6.0000004,1.6684342 6.0000004,1.4054639 v -0.03044 c 0,-0.2629703 4.01e-5,-0.48225745 -0.023375,-0.65634265 C 5.9519229,0.53493745 5.8975643,0.36904495 5.764247,0.23573635 5.6309589,0.10242785 5.4650659,0.04808045 5.2813192,0.02337505 5.1072311,-2.7952295e-5 4.8879527,-8.3522953e-6 4.6249765,3.4770475e-7 Z M 1.3902354,0.43902565 c 0.5253464,0 0.951227,0.4258664 0.951227,0.95120975 0,0.5253464 -0.4258806,0.951227 -0.951227,0.951227 -0.52534335,0 -0.95120975,-0.4258806 -0.95120975,-0.951227 0,-0.52534335 0.4258664,-0.95120975 0.95120975,-0.95120975 z m 3.2195298,0 c 0.2821469,0 0.4716913,4.577e-4 0.6130574,0.019465 0.1350735,0.018158 0.1928662,0.049542 0.2310028,0.087685 0.038137,0.038142 0.069509,0.095938 0.087685,0.2310027 0.018995,0.1413749 0.019464,0.33090765 0.019464,0.61305745 0,0.2821498 -4.692e-4,0.4716797 -0.019464,0.6130576 -0.018176,0.1350617 -0.049548,0.1928773 -0.087685,0.2310198 -0.038137,0.03814 -0.095929,0.069527 -0.2310028,0.087685 -0.1413661,0.019007 -0.3309105,0.019465 -0.6130574,0.019465 -0.2821469,0 -0.4716916,-4.577e-4 -0.6130577,-0.019465 C 3.8616341,2.3038398 3.8038244,2.2724524 3.7656877,2.2343128 3.7275511,2.1961703 3.6961783,2.1383547 3.6780027,2.003293 3.6590075,1.8619151 3.6585381,1.6723852 3.6585381,1.3902354 c 0,-0.2821498 4.694e-4,-0.47168255 0.019465,-0.61305745 0.018176,-0.1350647 0.049548,-0.1928602 0.087685,-0.2310027 0.038137,-0.038143 0.095946,-0.069527 0.2310198,-0.087685 0.1413661,-0.019007 0.3309108,-0.019465 0.6130573,-0.0194646 z M 1.3750239,3.2195129 c -0.2629673,0 -0.48226035,-2.29e-5 -0.65634265,0.023392 -0.1837438,0.024702 -0.3496363,0.079044 -0.4829449,0.212361 -0.1333085,0.133288 -0.1876559,0.299181 -0.2123613,0.4829277 C -2.7952295e-5,4.1122817 -8.3522953e-6,4.3315602 3.4770475e-7,4.5945363 v 0.03044 C -8.3522953e-6,4.8879525 -2.7952295e-5,5.1072309 0.02337535,5.281319 c 0.024705,0.1837467 0.079053,0.3496397 0.2123613,0.4829278 0.1333086,0.1333173 0.2992011,0.1876759 0.4829449,0.2123784 0.1740852,0.023415 0.39337235,0.023375 0.65634265,0.023375 h 0.03044 c 0.2629703,0 0.4822433,4.01e-5 0.6563255,-0.023375 0.1837467,-0.024703 0.349651,-0.079061 0.482945,-0.2123784 C 2.6780519,5.6309589 2.7323933,5.4650659 2.7570958,5.2813192 2.7805105,5.1072311 2.7804876,4.8879527 2.7804876,4.6249765 v -0.03044 c 0,-0.2629761 2.29e-5,-0.4822546 -0.023392,-0.6563427 C 2.7323933,3.7544469 2.6780519,3.5885539 2.5447346,3.4552659 2.4114406,3.3219486 2.2455363,3.2676072 2.0617896,3.2429047 1.8877103,3.21949 1.6684314,3.2195129 1.4054641,3.2195129 Z m 3.2347413,0 c -0.7677966,0 -1.3902523,0.6224557 -1.3902523,1.3902523 C 3.2195129,5.377591 3.8419686,6 4.6097652,6 5.377591,6 6,5.377591 6,4.6097652 6,3.8419686 5.377591,3.2195129 4.6097652,3.2195129 Z M 1.3902354,3.6585381 c 0.2821498,0 0.4716797,4.694e-4 0.6130576,0.019465 0.1350617,0.018176 0.1928773,0.049548 0.2310198,0.087685 0.03814,0.038137 0.069527,0.095946 0.087685,0.2310198 0.019007,0.1413661 0.019465,0.3309108 0.019465,0.6130577 0,0.2821469 -4.577e-4,0.4716913 -0.019465,0.6130574 -0.018158,0.1350735 -0.049545,0.1928662 -0.087685,0.2310028 -0.038142,0.038137 -0.095958,0.069509 -0.2310198,0.087685 -0.1413779,0.018995 -0.3309078,0.019464 -0.6130576,0.019464 -0.2821498,0 -0.47168255,-4.692e-4 -0.61305745,-0.019464 -0.1350647,-0.018176 -0.1928602,-0.049549 -0.2310027,-0.087685 -0.0381425,-0.038137 -0.069527,-0.095929 -0.087685,-0.2310028 -0.0190069,-0.1413661 -0.0194646,-0.3309105 -0.0194646,-0.6130574 0,-0.2821469 4.577e-4,-0.4716916 0.019465,-0.6130577 0.018158,-0.1350734 0.049542,-0.1928831 0.087685,-0.2310198 0.038142,-0.038137 0.095938,-0.069509 0.2310027,-0.087685 0.1413749,-0.018995 0.33090765,-0.019465 0.61305705,-0.019465 z m 3.2195298,0 c 0.5253376,0 0.9512096,0.4258895 0.9512096,0.9512271 0,0.5253376 -0.425872,0.9512096 -0.9512096,0.9512096 -0.5253376,0 -0.9512271,-0.425872 -0.9512271,-0.9512096 0,-0.5253376 0.4258895,-0.9512271 0.9512271,-0.9512271 z" />
</svg>