<svg width="200" height="50" viewBox="0 0 4 1" fill="none" version="1.1" id="svg3"
   sodipodi:docname="window-action-bold.svg" inkscape:version="1.4.2 (ebf0e940d0, 2025-05-08)"
   xmlns:inkscape="http://www.inkscape.org/namespaces/inkscape"
   xmlns:sodipodi="http://sodipodi.sourceforge.net/DTD/sodipodi-0.dtd" xmlns="http://www.w3.org/2000/svg"
   xmlns:svg="http://www.w3.org/2000/svg">
   <path
      d="M 1,0.5 C 1,0.7761425 0.7761425,1 0.5,1 0.22385775,1 0,0.7761425 0,0.5 0,0.2238575 0.22385775,0 0.5,0 0.7761425,0 1,0.2238575 1,0.5 Z"
      fill="#000000" id="path1" style="fill:#d9d91c;stroke:none;stroke-width:0.25;fill-opacity:1" />
   <path
      d="M 2.5,0.5 C 2.5,0.7761425 2.2761425,1 2,1 1.7238575,1 1.5,0.7761425 1.5,0.5 1.5,0.2238575 1.7238575,0 2,0 2.2761425,0 2.5,0.2238575 2.5,0.5 Z"
      fill="#000000" id="path2" style="fill:#1cc31c;stroke:none;stroke-width:0.25;fill-opacity:1" />
   <path
      d="M 3.5,1 C 3.77615,1 4,0.7761425 4,0.5 4,0.2238575 3.77615,0 3.5,0 3.22385,0 3,0.2238575 3,0.5 3,0.7761425 3.22385,1 3.5,1 Z"
      fill="#000000" id="path3" style="fill:#d32929;stroke:none;stroke-width:0.25;fill-opacity:1" />
</svg>